<svg width="1440" height="179" viewBox="0 0 1440 179" fill="none" xmlns="http://www.w3.org/2000/svg">
<g clip-path="url(#clip0_1918_1003)">
<path d="M1449.83 106.63C1444.55 106.369 1443.34 110.205 1443.79 116.687C1444.2 122.659 1443.88 128.719 1443.88 136.247C1441.41 134.793 1439.74 133.776 1438.12 132.686C1417.69 119.084 1396.67 107.183 1373.74 105.57C1355.25 104.39 1336.72 104.642 1318.25 106.325C1276.1 109.929 1235.31 123.88 1194.59 138.296C1161.3 150.023 1127.78 160.21 1093.34 163.538C1069.65 165.837 1045.89 161.04 1023.72 149.485C986.669 130.594 950.836 107.967 914.715 86.1257C862.349 54.4604 807.61 36.4262 749.847 39.6232C723.13 41.0764 697.172 49.1707 671.833 59.7646C621.604 80.7634 571.868 103.666 521.725 124.912C502.542 133.035 482.92 139.371 463.321 145.431C439.061 152.929 415.08 147.509 391.472 139.356C378.734 134.997 366.262 129.01 353.79 123.371C292.8 95.4407 230.645 88.2038 167.357 104.785C146.229 110.322 125.379 117.864 104.497 125.13C67.4666 137.845 30.1799 138.397 -7.34185 130.289C-8.20749 130.1 -9.10517 130.114 -9.99219 130.027V0.691895H1449.84L1449.83 106.63ZM1153.49 138.397C1118.71 147.335 1083.81 145.998 1048.87 142.408C1084.07 153.438 1119.03 153.845 1153.49 138.397ZM295.408 81.5336L295.75 81.0395C289.167 77.3483 282.712 73.105 275.968 70.0823C254.594 60.4621 233.413 70.0823 212.157 72.8579C217.211 73.8624 222.326 74.2031 227.428 73.8752C239.301 73.2212 251.249 70.7508 262.984 72.0006C273.906 73.1922 284.614 78.2203 295.408 81.5336ZM127.869 96.8213L75.3856 112.676C94.0022 112.879 110.994 109.987 127.869 96.8358V96.8213ZM1367.82 79.1648C1353.99 72.9306 1311.11 78.0023 1294.95 87.6516C1319.06 81.9405 1343.18 76.5927 1367.82 79.1648ZM965.573 97.824C965.37 98.4489 965.178 99.0883 964.986 99.7277C980.749 110.263 995.978 122.601 1013.7 126.99L965.573 97.824ZM779.226 18.7697C768.881 11.2712 724.573 18.5372 711.546 25.1348C733.935 19.5835 756.431 16.1394 779.226 18.7697ZM409.544 127.353L378.231 118.096C386.161 128.298 400.674 132.759 409.544 127.353ZM1041.26 112.443C1048.74 117.035 1056.33 122.165 1064.71 117.864L1064.95 115.059L1041.26 112.443Z" fill="#FF8227"/>
<path d="M924.914 137.409C869.193 113.228 814.839 83.8878 754.992 86.8087V84.8033C756.542 84.4981 758.07 84.0476 759.63 83.9168C785.578 81.5627 811.013 85.5299 836.277 94.0021C865.965 103.971 893.837 120.523 922.136 135.607C923.044 136.116 923.995 136.755 924.914 137.409Z" fill="white"/>
<path d="M1217.84 146.056C1170.81 162.259 1124.32 183.141 1074.77 178.273C1068.37 177.802 1062.01 176.71 1055.73 175.003C1060.44 175.003 1065.16 174.902 1069.88 175.003C1099.63 175.658 1129.32 171.146 1158.24 161.576C1176.04 155.763 1194.14 151.592 1212.12 146.768C1214.01 146.392 1215.92 146.154 1217.84 146.056Z" fill="white"/>
<path d="M39.7344 146.245C56.096 144.428 73.9325 143.76 91.4484 140.112C104.893 137.293 117.866 130.477 131.129 125.929C136.523 124.304 142.013 123.331 147.533 123.022C114.276 138.543 80.9217 153.031 45.0778 147.146C42.8122 146.826 40.5573 146.39 39.7344 146.245Z" fill="white"/>
<path d="M762.328 58.3553C727.884 58.0792 694.081 63.5287 661.102 77.1743C693.942 61.9011 727.157 50.3481 762.328 58.3553Z" fill="white"/>
<path d="M451.094 164.788C442.277 172.403 400.598 164.788 380.742 150.125C392.316 153.729 403.794 158.234 415.507 160.69C427.22 163.146 438.922 163.48 451.094 164.788Z" fill="white"/>
<path d="M1281.89 133.718C1294.92 125.765 1309 121.446 1323.28 121.017C1324.72 121.017 1326.21 122.775 1327.67 123.734C1326.5 125.594 1325.54 127.89 1324.06 129.198C1322.79 130.082 1321.33 130.368 1319.93 130.012C1307.19 127.734 1294.25 128.994 1281.89 133.718Z" fill="white"/>
<path d="M957.453 128.574L1006.46 155.734C988.477 152.232 972.607 141.623 957.453 128.574Z" fill="white"/>
<path d="M1437.87 159.236L1391.12 130.041C1401.71 131.407 1431.07 149.354 1437.87 159.236Z" fill="white"/>
<path d="M506.836 159.789C496.983 168.61 485.569 170.92 474.07 172.78L506.409 157.972L506.836 159.789Z" fill="white"/>
<path d="M362.867 161.285L394.03 172.678C382.424 175.207 372.656 167.723 362.867 161.285Z" fill="white"/>
<path d="M192.578 115.51H173.993L173.844 114.434L192.386 111.775L192.578 115.51Z" fill="white"/>
<path d="M326.497 125.129L340.336 132.076L339.877 133.907L325.695 128.443L326.497 125.129Z" fill="white"/>
<path d="M1153.49 138.397C1119.03 153.845 1084.03 153.438 1048.87 142.408C1083.81 145.997 1118.71 147.334 1153.49 138.397Z" fill="white"/>
<path d="M295.407 81.534C284.614 78.2062 273.905 73.1781 262.983 72.001C251.228 70.7512 239.301 73.2217 227.428 73.8756C222.325 74.2035 217.211 73.8629 212.156 72.8584C233.413 70.0246 254.541 60.4625 275.968 70.0828C282.711 73.1054 289.166 77.3488 295.749 81.0399L295.407 81.534Z" fill="white"/>
<path d="M127.866 96.8354C110.992 109.987 93.9994 112.821 75.3828 112.69L127.866 96.8354Z" fill="white"/>
<path d="M1367.82 79.1649C1343.18 76.5928 1319.06 81.9406 1294.95 87.6517C1311.11 78.0024 1353.99 72.9307 1367.82 79.1649Z" fill="white"/>
<path d="M965.573 97.8242L1013.66 126.99C995.924 122.63 980.716 110.264 964.953 99.7279C965.178 99.0885 965.37 98.4491 965.573 97.8242Z" fill="white"/>
<path d="M779.235 18.7703C756.44 16.1545 733.944 19.5841 711.555 25.1353C724.582 18.5378 768.89 11.2718 779.235 18.7703Z" fill="white"/>
<path d="M409.547 127.353C400.677 132.759 386.164 128.298 378.234 118.096L409.547 127.353Z" fill="white"/>
<path d="M1041.26 112.443L1064.95 115.059L1064.7 117.864C1056.33 122.223 1048.71 117.035 1041.26 112.443Z" fill="white"/>
</g>
<defs>
<clipPath id="clip0_1918_1003">
<rect width="1459.83" height="178.453" fill="white" transform="translate(-10 0.546875)"/>
</clipPath>
</defs>
</svg>
