<svg width="1440" height="179" viewBox="0 0 1440 179" fill="none" xmlns="http://www.w3.org/2000/svg">
<g clip-path="url(#clip0_1918_1025)">
<path d="M1449.83 72.3691C1444.55 72.6307 1443.34 68.7943 1443.79 62.313C1444.2 56.3403 1443.88 50.2805 1443.88 42.7529C1441.41 44.2061 1439.74 45.2233 1438.12 46.3132C1417.69 59.9152 1396.67 71.8169 1373.74 73.43C1355.25 74.6096 1336.72 74.3573 1318.25 72.6743C1276.1 69.0704 1235.31 55.1196 1194.59 40.7039C1161.3 28.9765 1127.78 18.7896 1093.34 15.4617C1069.65 13.1622 1045.89 17.9592 1023.72 29.5142C986.669 48.4058 950.836 71.0322 914.715 92.8738C862.349 124.539 807.61 142.573 749.847 139.376C723.13 137.923 697.172 129.829 671.833 119.235C621.604 98.2361 571.868 75.3337 521.725 54.0878C502.542 45.9644 482.92 39.6285 463.321 33.5686C439.061 26.0701 415.08 31.4906 391.472 39.643C378.734 44.0026 366.262 49.9898 353.79 55.6283C292.8 83.5588 230.645 90.7957 167.357 74.2147C146.229 68.678 125.379 61.1359 104.497 53.8699C67.4666 41.1543 30.1799 40.6021 -7.34185 48.711C-8.20749 48.8999 -9.10517 48.8854 -9.99219 48.9726V178.308H1449.84L1449.83 72.3691ZM1153.49 40.6021C1118.71 31.6649 1083.81 33.0019 1048.87 36.5913C1084.07 25.5615 1119.03 25.1546 1153.49 40.6021ZM295.408 97.466L295.75 97.96C289.167 101.651 282.712 105.895 275.968 108.917C254.594 118.537 233.413 108.917 212.157 106.142C217.211 105.137 222.326 104.796 227.428 105.124C239.301 105.778 251.249 108.249 262.984 106.999C273.906 105.807 284.614 100.779 295.408 97.466ZM127.869 82.1783L75.3856 66.3238C94.0022 66.1204 110.994 69.0122 127.869 82.1637V82.1783ZM1367.82 99.8347C1353.99 106.069 1311.11 100.997 1294.95 91.348C1319.06 97.059 1343.18 102.407 1367.82 99.8347ZM965.573 81.1755C965.37 80.5507 965.178 79.9113 964.986 79.2718C980.749 68.7361 995.978 56.3984 1013.7 52.0098L965.573 81.1755ZM779.226 160.23C768.881 167.728 724.573 160.462 711.546 153.865C733.935 159.416 756.431 162.86 779.226 160.23ZM409.544 51.6465L378.231 60.9034C386.161 50.7019 400.674 46.2406 409.544 51.6465ZM1041.26 66.5563C1048.74 61.9642 1056.33 56.8344 1064.71 61.1359L1064.95 63.9406L1041.26 66.5563Z" fill="#FF8227"/>
<path d="M924.914 41.5898C869.193 65.7711 814.839 95.1112 754.992 92.1903V94.1957C756.542 94.5009 758.07 94.9514 759.63 95.0822C785.578 97.4364 811.013 93.4691 836.277 84.9969C865.965 75.028 893.837 58.476 922.136 43.3918C923.044 42.8831 923.995 42.2437 924.914 41.5898Z" fill="white"/>
<path d="M1217.84 32.9438C1170.81 16.7406 1124.32 -4.14188 1074.77 0.726349C1068.37 1.19705 1062.01 2.28974 1055.73 3.99605C1060.44 3.99605 1065.16 4.09778 1069.88 3.99605C1099.63 3.3413 1129.32 7.85363 1158.24 17.4236C1176.04 23.2365 1194.14 27.4071 1212.12 32.2318C1214.01 32.6078 1215.92 32.8455 1217.84 32.9438Z" fill="white"/>
<path d="M39.7344 32.7554C56.096 34.5719 73.9325 35.2403 91.4484 38.8879C104.893 41.7071 117.866 48.5226 131.129 53.0711C136.523 54.6963 142.013 55.6689 147.533 55.9775C114.276 40.4573 80.9217 25.9689 45.0778 31.8544C42.8122 32.1741 40.5573 32.61 39.7344 32.7554Z" fill="white"/>
<path d="M762.328 120.644C727.884 120.92 694.081 115.471 661.102 101.825C693.942 117.098 727.157 128.651 762.328 120.644Z" fill="white"/>
<path d="M451.094 14.2112C442.277 6.59642 400.598 14.2112 380.742 28.874C392.316 25.2701 403.794 20.7651 415.507 18.3092C427.22 15.8533 438.922 15.5191 451.094 14.2112Z" fill="white"/>
<path d="M1281.89 45.2819C1294.92 53.2349 1309 57.5536 1323.28 57.9829C1324.72 57.9829 1326.21 56.2245 1327.67 55.2654C1326.5 53.4053 1325.54 51.1093 1324.06 49.8014C1322.79 48.9172 1321.33 48.6311 1319.93 48.9876C1307.19 51.266 1294.25 50.0053 1281.89 45.2819Z" fill="white"/>
<path d="M957.453 50.4258L1006.46 23.2654C988.477 26.7676 972.607 37.376 957.453 50.4258Z" fill="white"/>
<path d="M1437.87 19.7637L1391.12 48.9585C1401.71 47.5925 1431.07 29.6454 1437.87 19.7637Z" fill="white"/>
<path d="M506.836 19.2108C496.983 10.3899 485.569 8.0793 474.07 6.2192L506.409 21.0273L506.836 19.2108Z" fill="white"/>
<path d="M362.867 17.7144L394.03 6.32124C382.424 3.79267 372.656 11.2767 362.867 17.7144Z" fill="white"/>
<path d="M192.578 63.4899H173.993L173.844 64.5652L192.386 67.2246L192.578 63.4899Z" fill="white"/>
<path d="M326.497 53.8701L340.336 46.9238L339.877 45.0928L325.695 50.5568L326.497 53.8701Z" fill="white"/>
<path d="M1153.49 40.6025C1119.03 25.155 1084.03 25.5619 1048.87 36.5917C1083.81 33.0023 1118.71 31.6653 1153.49 40.6025Z" fill="white"/>
<path d="M295.407 97.4655C284.614 100.793 273.905 105.821 262.983 106.999C251.228 108.248 239.301 105.778 227.428 105.124C222.325 104.796 217.211 105.137 212.156 106.141C233.413 108.975 254.541 118.537 275.968 108.917C282.711 105.894 289.166 101.651 295.749 97.9596L295.407 97.4655Z" fill="white"/>
<path d="M127.866 82.1641C110.992 69.0126 93.9994 66.1788 75.3828 66.3096L127.866 82.1641Z" fill="white"/>
<path d="M1367.82 99.8346C1343.18 102.407 1319.06 97.0589 1294.95 91.3479C1311.11 100.997 1353.99 106.069 1367.82 99.8346Z" fill="white"/>
<path d="M965.573 81.1753L1013.66 52.0095C995.924 56.3691 980.716 68.7359 964.953 79.2716C965.178 79.911 965.37 80.5504 965.573 81.1753Z" fill="white"/>
<path d="M779.235 160.23C756.44 162.845 733.944 159.416 711.555 153.865C724.582 160.462 768.89 167.728 779.235 160.23Z" fill="white"/>
<path d="M409.547 51.6464C400.677 46.2405 386.164 50.7018 378.234 60.9033L409.547 51.6464Z" fill="white"/>
<path d="M1041.26 66.5562L1064.95 63.9404L1064.7 61.1357C1056.33 56.7761 1048.71 61.964 1041.26 66.5562Z" fill="white"/>
</g>
<defs>
<clipPath id="clip0_1918_1025">
<rect width="1459.83" height="178.453" fill="white" transform="matrix(1 0 0 -1 -10 178.453)"/>
</clipPath>
</defs>
</svg>
