<svg width="397" height="418" viewBox="0 0 397 418" fill="none" xmlns="http://www.w3.org/2000/svg">
<path d="M93.6687 225.16C91.9387 238.23 102.169 254.88 113.279 260.32C124.389 265.76 147.829 262.8 157.899 253.75C163.719 248.52 192.279 183.98 192.379 169.32C192.479 154.66 170.509 136.25 154.559 145.22C138.609 154.19 95.0687 214.58 93.6687 225.16Z" fill="#FFC727"/>
<path opacity="0.1" d="M186.112 171.62C185.825 172.06 185.412 172.402 184.927 172.602C184.441 172.801 183.907 172.849 183.394 172.738C182.881 172.627 182.414 172.363 182.055 171.98C181.695 171.598 181.46 171.115 181.381 170.597C181.302 170.078 181.382 169.547 181.612 169.075C181.841 168.603 182.208 168.212 182.664 167.953C183.121 167.694 183.645 167.58 184.168 167.626C184.691 167.672 185.187 167.876 185.592 168.21C186.077 168.619 186.396 169.19 186.492 169.817C186.588 170.444 186.453 171.085 186.112 171.62ZM186.112 171.62C186.319 171.298 186.43 170.923 186.431 170.54C186.431 170.157 186.322 169.782 186.116 169.459C185.91 169.137 185.615 168.88 185.267 168.72C184.919 168.56 184.533 168.503 184.153 168.556C183.774 168.609 183.418 168.77 183.127 169.019C182.837 169.269 182.624 169.597 182.514 169.964C182.405 170.331 182.403 170.721 182.509 171.089C182.614 171.457 182.824 171.787 183.112 172.04C183.328 172.23 183.582 172.37 183.858 172.453C184.133 172.535 184.423 172.557 184.708 172.517C184.993 172.477 185.265 172.376 185.508 172.222C185.75 172.067 185.956 171.862 186.112 171.62Z" fill="black"/>
<path opacity="0.1" d="M177.507 190.8C177.221 191.241 176.808 191.585 176.323 191.786C175.838 191.987 175.303 192.035 174.789 191.925C174.275 191.815 173.807 191.551 173.447 191.169C173.087 190.786 172.851 190.304 172.772 189.784C172.693 189.265 172.773 188.734 173.002 188.261C173.232 187.789 173.6 187.397 174.057 187.138C174.514 186.88 175.039 186.766 175.562 186.813C176.086 186.86 176.582 187.064 176.987 187.4C177.472 187.806 177.793 188.376 177.889 189.002C177.985 189.628 177.849 190.267 177.507 190.8ZM177.507 190.8C177.697 190.484 177.794 190.121 177.786 189.753C177.778 189.385 177.666 189.026 177.463 188.719C177.26 188.411 176.974 188.168 176.638 188.016C176.303 187.865 175.931 187.811 175.566 187.862C175.201 187.914 174.858 188.067 174.577 188.305C174.296 188.543 174.087 188.856 173.977 189.207C173.866 189.558 173.857 189.934 173.951 190.29C174.044 190.646 174.237 190.969 174.507 191.22C174.723 191.41 174.977 191.55 175.253 191.633C175.528 191.715 175.818 191.737 176.103 191.697C176.387 191.657 176.66 191.557 176.903 191.402C177.145 191.247 177.351 191.042 177.507 190.8Z" fill="black"/>
<path opacity="0.1" d="M168.921 209.98C168.635 210.421 168.222 210.765 167.737 210.966C167.252 211.167 166.717 211.216 166.203 211.105C165.689 210.995 165.221 210.731 164.861 210.349C164.501 209.967 164.265 209.484 164.186 208.964C164.107 208.445 164.187 207.914 164.416 207.441C164.646 206.969 165.014 206.577 165.471 206.319C165.928 206.06 166.453 205.946 166.976 205.993C167.5 206.04 167.996 206.245 168.401 206.58C168.885 206.988 169.204 207.557 169.3 208.182C169.396 208.808 169.261 209.447 168.921 209.98ZM168.921 209.98C169.128 209.658 169.239 209.283 169.24 208.9C169.24 208.517 169.131 208.142 168.925 207.82C168.718 207.497 168.424 207.24 168.076 207.08C167.728 206.92 167.342 206.863 166.962 206.916C166.583 206.969 166.227 207.13 165.936 207.38C165.646 207.629 165.433 207.957 165.323 208.324C165.214 208.691 165.212 209.081 165.317 209.45C165.423 209.818 165.633 210.148 165.921 210.4C166.137 210.59 166.391 210.73 166.667 210.813C166.942 210.895 167.232 210.917 167.517 210.877C167.802 210.837 168.074 210.737 168.317 210.582C168.559 210.427 168.765 210.222 168.921 209.98Z" fill="black"/>
<path opacity="0.1" d="M160.28 229.16C159.995 229.601 159.582 229.945 159.096 230.146C158.611 230.347 158.076 230.395 157.562 230.285C157.049 230.175 156.581 229.911 156.221 229.529C155.86 229.146 155.625 228.663 155.545 228.144C155.466 227.625 155.546 227.094 155.776 226.621C156.005 226.149 156.373 225.757 156.83 225.498C157.288 225.24 157.813 225.126 158.336 225.173C158.859 225.22 159.356 225.424 159.76 225.76C160.246 226.166 160.567 226.736 160.663 227.362C160.758 227.988 160.622 228.627 160.28 229.16ZM160.28 229.16C160.47 228.844 160.567 228.481 160.559 228.113C160.552 227.745 160.44 227.386 160.237 227.079C160.034 226.771 159.748 226.528 159.412 226.376C159.076 226.225 158.704 226.171 158.339 226.222C157.974 226.273 157.632 226.427 157.35 226.665C157.069 226.903 156.861 227.215 156.75 227.567C156.639 227.918 156.63 228.294 156.724 228.65C156.818 229.006 157.011 229.329 157.28 229.58C157.496 229.769 157.751 229.91 158.026 229.993C158.301 230.075 158.591 230.097 158.876 230.057C159.161 230.017 159.434 229.916 159.676 229.762C159.918 229.607 160.124 229.401 160.28 229.16Z" fill="black"/>
<path opacity="0.1" d="M151.733 248.32C151.448 248.761 151.035 249.105 150.55 249.306C150.064 249.507 149.529 249.555 149.016 249.445C148.502 249.335 148.034 249.071 147.674 248.689C147.313 248.306 147.078 247.824 146.999 247.304C146.919 246.785 146.999 246.254 147.229 245.781C147.458 245.309 147.826 244.917 148.283 244.659C148.741 244.4 149.266 244.286 149.789 244.333C150.312 244.38 150.809 244.584 151.213 244.92C151.697 245.327 152.017 245.897 152.112 246.522C152.208 247.148 152.073 247.786 151.733 248.32ZM151.733 248.32C151.922 248.004 152.017 247.641 152.008 247.272C151.999 246.904 151.886 246.546 151.682 246.239C151.478 245.933 151.191 245.69 150.855 245.54C150.519 245.39 150.147 245.338 149.782 245.39C149.418 245.442 149.075 245.597 148.795 245.835C148.514 246.074 148.307 246.387 148.198 246.739C148.088 247.09 148.08 247.466 148.175 247.822C148.269 248.178 148.463 248.5 148.733 248.75C148.95 248.939 149.205 249.079 149.481 249.161C149.757 249.242 150.047 249.263 150.332 249.223C150.616 249.182 150.889 249.08 151.131 248.924C151.373 248.769 151.578 248.562 151.733 248.32Z" fill="black"/>
<path opacity="0.1" d="M174.921 164.79C174.635 165.231 174.222 165.575 173.737 165.776C173.252 165.977 172.717 166.026 172.203 165.915C171.689 165.805 171.221 165.541 170.861 165.159C170.501 164.777 170.265 164.294 170.186 163.775C170.107 163.255 170.187 162.724 170.416 162.252C170.646 161.779 171.014 161.387 171.471 161.129C171.928 160.87 172.453 160.757 172.976 160.803C173.5 160.85 173.996 161.055 174.401 161.39C174.886 161.796 175.207 162.366 175.303 162.992C175.399 163.618 175.263 164.257 174.921 164.79ZM174.921 164.79C175.128 164.468 175.239 164.094 175.24 163.711C175.24 163.328 175.131 162.952 174.925 162.63C174.718 162.307 174.424 162.05 174.076 161.89C173.728 161.73 173.342 161.673 172.962 161.726C172.583 161.779 172.227 161.94 171.936 162.19C171.646 162.439 171.433 162.767 171.323 163.134C171.214 163.501 171.212 163.892 171.317 164.26C171.423 164.628 171.633 164.958 171.921 165.21C172.137 165.4 172.391 165.541 172.667 165.623C172.942 165.705 173.232 165.727 173.517 165.687C173.802 165.648 174.074 165.547 174.317 165.392C174.559 165.237 174.765 165.032 174.921 164.79Z" fill="black"/>
<path opacity="0.1" d="M166.28 183.97C165.995 184.411 165.582 184.755 165.096 184.956C164.611 185.157 164.076 185.205 163.562 185.095C163.049 184.985 162.581 184.721 162.221 184.339C161.86 183.956 161.625 183.474 161.545 182.954C161.466 182.435 161.546 181.904 161.776 181.431C162.005 180.959 162.373 180.567 162.83 180.308C163.288 180.05 163.813 179.936 164.336 179.983C164.859 180.03 165.356 180.234 165.76 180.57C166.246 180.976 166.567 181.546 166.663 182.172C166.758 182.798 166.622 183.437 166.28 183.97ZM166.28 183.97C166.465 183.655 166.558 183.294 166.547 182.929C166.537 182.564 166.423 182.209 166.22 181.906C166.016 181.602 165.731 181.362 165.397 181.214C165.064 181.065 164.695 181.014 164.333 181.065C163.971 181.117 163.632 181.27 163.353 181.507C163.074 181.743 162.868 182.053 162.758 182.402C162.648 182.75 162.639 183.122 162.731 183.476C162.823 183.829 163.014 184.15 163.28 184.4C163.497 184.589 163.752 184.729 164.028 184.811C164.304 184.892 164.594 184.913 164.879 184.873C165.163 184.832 165.436 184.73 165.678 184.574C165.92 184.418 166.125 184.212 166.28 183.97Z" fill="black"/>
<path opacity="0.1" d="M157.733 203.15C157.448 203.591 157.035 203.935 156.55 204.136C156.064 204.337 155.529 204.385 155.016 204.275C154.502 204.165 154.034 203.901 153.674 203.519C153.313 203.137 153.078 202.654 152.999 202.134C152.919 201.615 152.999 201.084 153.229 200.611C153.458 200.139 153.826 199.747 154.283 199.489C154.741 199.23 155.266 199.116 155.789 199.163C156.312 199.21 156.809 199.414 157.213 199.75C157.699 200.156 158.02 200.726 158.116 201.352C158.211 201.978 158.075 202.617 157.733 203.15ZM157.733 203.15C157.922 202.834 158.017 202.471 158.008 202.102C157.999 201.734 157.886 201.376 157.682 201.07C157.478 200.763 157.191 200.52 156.855 200.37C156.519 200.22 156.147 200.168 155.782 200.22C155.418 200.272 155.075 200.427 154.795 200.665C154.514 200.904 154.307 201.217 154.198 201.569C154.088 201.921 154.08 202.296 154.175 202.652C154.269 203.008 154.463 203.33 154.733 203.58C154.95 203.769 155.205 203.909 155.481 203.991C155.757 204.072 156.047 204.094 156.332 204.053C156.616 204.012 156.889 203.91 157.131 203.754C157.373 203.599 157.578 203.392 157.733 203.15Z" fill="black"/>
<path opacity="0.1" d="M149.128 222.32C148.841 222.76 148.428 223.103 147.942 223.303C147.456 223.503 146.921 223.55 146.407 223.438C145.894 223.327 145.426 223.062 145.067 222.678C144.708 222.295 144.474 221.811 144.396 221.292C144.318 220.772 144.4 220.241 144.631 219.769C144.862 219.297 145.231 218.907 145.689 218.649C146.147 218.392 146.672 218.28 147.196 218.328C147.719 218.377 148.215 218.583 148.618 218.92C149.102 219.328 149.421 219.898 149.515 220.524C149.609 221.15 149.471 221.788 149.128 222.32ZM149.128 222.32C149.313 222.005 149.406 221.644 149.395 221.279C149.385 220.914 149.271 220.559 149.068 220.256C148.864 219.952 148.579 219.712 148.245 219.564C147.912 219.415 147.543 219.364 147.181 219.416C146.819 219.467 146.48 219.62 146.201 219.857C145.922 220.093 145.716 220.403 145.606 220.752C145.496 221.1 145.487 221.473 145.579 221.826C145.671 222.18 145.862 222.5 146.128 222.75C146.345 222.939 146.6 223.079 146.876 223.161C147.152 223.242 147.442 223.264 147.727 223.223C148.011 223.182 148.284 223.08 148.526 222.924C148.768 222.769 148.973 222.562 149.128 222.32Z" fill="black"/>
<path opacity="0.1" d="M140.541 241.52C140.255 241.96 139.842 242.302 139.356 242.501C138.871 242.701 138.337 242.749 137.824 242.638C137.311 242.527 136.844 242.262 136.484 241.88C136.125 241.498 135.89 241.015 135.811 240.497C135.732 239.978 135.812 239.447 136.041 238.975C136.27 238.503 136.638 238.112 137.094 237.853C137.551 237.594 138.075 237.48 138.598 237.526C139.12 237.572 139.617 237.775 140.021 238.11C140.508 238.518 140.829 239.089 140.925 239.717C141.021 240.344 140.884 240.985 140.541 241.52ZM140.541 241.52C140.749 241.198 140.86 240.823 140.86 240.44C140.861 240.057 140.752 239.682 140.546 239.359C140.339 239.037 140.045 238.78 139.697 238.62C139.349 238.459 138.962 238.403 138.583 238.456C138.204 238.509 137.848 238.67 137.557 238.919C137.267 239.169 137.054 239.497 136.944 239.863C136.834 240.23 136.832 240.621 136.938 240.989C137.044 241.357 137.253 241.687 137.541 241.94C137.758 242.129 138.012 242.27 138.287 242.353C138.563 242.435 138.853 242.457 139.138 242.417C139.422 242.377 139.695 242.276 139.937 242.122C140.18 241.967 140.386 241.761 140.541 241.52Z" fill="black"/>
<path opacity="0.1" d="M126.647 254.57C126.362 255.011 125.949 255.355 125.464 255.556C124.978 255.757 124.443 255.805 123.93 255.695C123.416 255.585 122.948 255.321 122.588 254.939C122.227 254.556 121.992 254.074 121.913 253.554C121.833 253.035 121.914 252.504 122.143 252.031C122.373 251.559 122.74 251.167 123.197 250.909C123.655 250.65 124.18 250.536 124.703 250.583C125.226 250.63 125.723 250.834 126.127 251.17C126.611 251.577 126.931 252.147 127.026 252.772C127.122 253.398 126.987 254.036 126.647 254.57ZM126.647 254.57C126.836 254.254 126.931 253.891 126.922 253.522C126.913 253.154 126.8 252.796 126.596 252.489C126.392 252.183 126.105 251.94 125.769 251.79C125.433 251.64 125.061 251.588 124.696 251.64C124.332 251.692 123.989 251.847 123.709 252.085C123.429 252.324 123.221 252.637 123.112 252.989C123.002 253.34 122.994 253.716 123.089 254.072C123.183 254.428 123.377 254.75 123.647 255C123.864 255.189 124.119 255.329 124.395 255.411C124.671 255.492 124.961 255.513 125.246 255.473C125.531 255.432 125.803 255.33 126.045 255.174C126.287 255.019 126.492 254.812 126.647 254.57Z" fill="black"/>
<g opacity="0.1">
<path d="M183.147 158.4C170.913 185.487 158.22 212.357 145.067 239.01C143.377 242.34 141.777 245.68 139.937 248.94C139.266 250.009 138.436 250.97 137.477 251.79C133.699 255.015 129.688 257.956 125.477 260.59C129.565 257.807 133.458 254.746 137.127 251.43C138.039 250.622 138.824 249.682 139.457 248.64C141.197 245.4 142.747 242 144.367 238.64C156.267 213.72 170.897 182.96 183.137 158.36L183.147 158.4Z" fill="black"/>
</g>
<path d="M93.9593 137.98C83.3893 130.1 64.8193 134.98 54.6593 141.98C44.4993 148.98 32.5393 162.62 35.5293 175.82C37.2493 183.46 81.8493 244.12 94.5993 251.4C107.349 258.68 134.129 248.4 134.079 230.13C134.029 211.86 102.509 144.32 93.9593 137.98Z" fill="#FFC727"/>
<path opacity="0.2" d="M84.2019 140.89C88.6219 143.78 82.7819 153.76 70.8719 160.79C60.3519 167.01 49.1819 170.21 46.1119 167.72C42.2319 164.58 47.1119 154.72 58.4519 147.2C67.2819 141.38 80.8219 138.67 84.2019 140.89Z" fill="black"/>
<path opacity="0.2" d="M85.6237 143.16C86.2637 147.36 80.6237 155.06 70.8737 160.79C62.9737 165.46 54.7137 168.43 49.7837 168.57C46.6137 165.32 51.2837 156.32 61.7337 149.38C69.7237 144.12 81.7737 141.54 85.6237 143.16Z" fill="black"/>
<path d="M118.838 183.32C120.738 187.73 130.638 214.62 130.338 226.58C129.948 242.67 118.148 262.36 118.598 262.68C119.701 263.302 120.896 263.744 122.138 263.99C122.728 263.93 133.338 246.16 134.648 227.65C135.498 215.54 121.578 181.92 120.908 182.04C120.153 182.349 119.453 182.782 118.838 183.32Z" fill="#37474F"/>
<path opacity="0.1" d="M92.9284 163.16C92.643 163.601 92.2302 163.945 91.7448 164.146C91.2595 164.347 90.7245 164.395 90.2108 164.285C89.6972 164.175 89.2292 163.911 88.8689 163.529C88.5087 163.146 88.2733 162.663 88.1938 162.144C88.1144 161.625 88.1948 161.094 88.4243 160.621C88.6538 160.149 89.0215 159.757 89.4787 159.498C89.936 159.24 90.4611 159.126 90.9843 159.173C91.5076 159.22 92.0042 159.424 92.4084 159.76C92.8943 160.166 93.2152 160.736 93.311 161.362C93.4067 161.988 93.2707 162.627 92.9284 163.16ZM92.9284 163.16C93.1138 162.845 93.2064 162.484 93.1957 162.119C93.185 161.754 93.0714 161.399 92.868 161.095C92.6645 160.792 92.3795 160.552 92.0457 160.403C91.7119 160.255 91.343 160.204 90.9813 160.255C90.6196 160.307 90.2799 160.46 90.0014 160.697C89.7228 160.933 89.5166 161.243 89.4066 161.592C89.2966 161.94 89.2872 162.312 89.3795 162.666C89.4718 163.019 89.6621 163.34 89.9284 163.59C90.1452 163.779 90.4002 163.919 90.6761 164.001C90.952 164.082 91.2422 164.103 91.527 164.063C91.8118 164.022 92.0844 163.92 92.3262 163.764C92.5681 163.608 92.7735 163.402 92.9284 163.16Z" fill="black"/>
<path opacity="0.1" d="M101.803 154.41C101.518 154.851 101.105 155.195 100.62 155.396C100.134 155.597 99.5995 155.645 99.0858 155.535C98.5722 155.425 98.1042 155.161 97.7439 154.779C97.3837 154.396 97.1483 153.913 97.0688 153.394C96.9894 152.875 97.0698 152.344 97.2993 151.871C97.5287 151.399 97.8965 151.007 98.3537 150.748C98.811 150.49 99.3361 150.376 99.8593 150.423C100.383 150.47 100.879 150.674 101.283 151.01C101.769 151.416 102.09 151.986 102.186 152.612C102.282 153.238 102.146 153.877 101.803 154.41ZM101.803 154.41C101.994 154.094 102.09 153.731 102.083 153.363C102.075 152.995 101.963 152.636 101.76 152.329C101.557 152.021 101.271 151.778 100.935 151.626C100.599 151.475 100.228 151.421 99.8628 151.472C99.4979 151.523 99.155 151.677 98.8737 151.915C98.5925 152.153 98.3844 152.465 98.2735 152.817C98.1626 153.168 98.1536 153.544 98.2474 153.9C98.3412 154.256 98.534 154.579 98.8034 154.83C99.0196 155.019 99.274 155.16 99.5495 155.243C99.8249 155.325 100.115 155.347 100.4 155.307C100.684 155.267 100.957 155.166 101.199 155.012C101.442 154.857 101.648 154.651 101.803 154.41Z" fill="black"/>
<path opacity="0.1" d="M103.28 182.32C102.995 182.761 102.582 183.105 102.096 183.306C101.611 183.507 101.076 183.555 100.562 183.445C100.049 183.335 99.5807 183.071 99.2205 182.689C98.8603 182.306 98.6248 181.824 98.5454 181.304C98.466 180.785 98.5463 180.254 98.7758 179.781C99.0053 179.309 99.3731 178.917 99.8303 178.659C100.288 178.4 100.813 178.286 101.336 178.333C101.859 178.38 102.356 178.584 102.76 178.92C103.246 179.326 103.567 179.896 103.663 180.522C103.758 181.148 103.622 181.787 103.28 182.32ZM103.28 182.32C103.465 182.005 103.558 181.644 103.547 181.279C103.537 180.914 103.423 180.559 103.22 180.256C103.016 179.952 102.731 179.712 102.397 179.564C102.064 179.415 101.695 179.364 101.333 179.416C100.971 179.467 100.632 179.62 100.353 179.857C100.074 180.093 99.8682 180.403 99.7582 180.752C99.6481 181.1 99.6387 181.473 99.7311 181.826C99.8234 182.18 100.014 182.5 100.28 182.75C100.497 182.939 100.752 183.079 101.028 183.161C101.304 183.242 101.594 183.263 101.879 183.223C102.163 183.182 102.436 183.08 102.678 182.924C102.92 182.769 103.125 182.562 103.28 182.32Z" fill="black"/>
<path opacity="0.1" d="M112.713 175.41C112.427 175.85 112.014 176.192 111.528 176.392C111.043 176.591 110.508 176.639 109.996 176.528C109.483 176.417 109.016 176.153 108.656 175.77C108.297 175.388 108.062 174.905 107.983 174.387C107.904 173.868 107.984 173.337 108.213 172.865C108.442 172.393 108.809 172.002 109.266 171.743C109.722 171.484 110.247 171.37 110.77 171.416C111.292 171.462 111.789 171.666 112.193 172C112.68 172.408 113.001 172.979 113.097 173.607C113.193 174.235 113.056 174.876 112.713 175.41ZM112.713 175.41C112.903 175.094 113 174.731 112.993 174.363C112.985 173.995 112.873 173.636 112.67 173.329C112.467 173.021 112.181 172.778 111.845 172.626C111.509 172.475 111.137 172.421 110.773 172.473C110.408 172.524 110.065 172.677 109.784 172.915C109.502 173.153 109.294 173.466 109.183 173.817C109.072 174.168 109.063 174.544 109.157 174.9C109.251 175.256 109.444 175.579 109.713 175.83C109.929 176.02 110.184 176.16 110.459 176.243C110.735 176.325 111.025 176.347 111.309 176.307C111.594 176.267 111.867 176.167 112.109 176.012C112.351 175.857 112.558 175.652 112.713 175.41Z" fill="black"/>
<path opacity="0.1" d="M113.689 201.52C113.517 201.829 113.284 202.099 113.004 202.314C112.724 202.529 112.403 202.684 112.06 202.771C111.718 202.857 111.362 202.873 111.013 202.817C110.665 202.76 110.331 202.633 110.033 202.444C109.736 202.254 109.48 202.005 109.282 201.713C109.084 201.421 108.948 201.091 108.882 200.744C108.816 200.397 108.821 200.041 108.898 199.696C108.975 199.351 109.121 199.026 109.329 198.74C109.5 198.432 109.733 198.162 110.013 197.947C110.293 197.732 110.614 197.576 110.957 197.49C111.299 197.403 111.655 197.387 112.004 197.444C112.353 197.5 112.686 197.627 112.984 197.817C113.281 198.007 113.537 198.255 113.735 198.548C113.933 198.84 114.069 199.169 114.135 199.516C114.201 199.863 114.196 200.22 114.119 200.564C114.042 200.909 113.896 201.234 113.689 201.52ZM113.689 201.52C113.874 201.205 113.967 200.844 113.956 200.479C113.945 200.114 113.832 199.759 113.628 199.456C113.425 199.152 113.14 198.912 112.806 198.764C112.472 198.615 112.103 198.564 111.741 198.616C111.38 198.668 111.04 198.82 110.761 199.057C110.483 199.293 110.277 199.604 110.167 199.952C110.057 200.3 110.047 200.673 110.14 201.026C110.232 201.38 110.422 201.7 110.689 201.95C110.905 202.139 111.16 202.279 111.436 202.361C111.712 202.443 112.002 202.464 112.287 202.423C112.572 202.382 112.844 202.28 113.086 202.124C113.328 201.969 113.534 201.763 113.689 201.52Z" fill="black"/>
<path opacity="0.1" d="M122.022 194.69C121.737 195.131 121.324 195.475 120.839 195.676C120.353 195.877 119.818 195.925 119.305 195.815C118.791 195.705 118.323 195.441 117.963 195.059C117.602 194.677 117.367 194.194 117.288 193.674C117.208 193.155 117.289 192.624 117.518 192.151C117.747 191.679 118.115 191.287 118.572 191.029C119.03 190.77 119.555 190.656 120.078 190.703C120.601 190.75 121.098 190.955 121.502 191.29C121.988 191.696 122.309 192.266 122.405 192.892C122.5 193.518 122.364 194.157 122.022 194.69ZM122.022 194.69C122.212 194.375 122.309 194.012 122.301 193.643C122.294 193.275 122.182 192.916 121.979 192.609C121.776 192.302 121.49 192.058 121.154 191.906C120.818 191.755 120.446 191.702 120.082 191.753C119.717 191.804 119.374 191.957 119.092 192.195C118.811 192.433 118.603 192.746 118.492 193.097C118.381 193.448 118.372 193.824 118.466 194.18C118.56 194.536 118.753 194.859 119.022 195.11C119.238 195.3 119.493 195.44 119.768 195.523C120.044 195.605 120.334 195.627 120.618 195.587C120.903 195.547 121.176 195.447 121.418 195.292C121.66 195.137 121.866 194.932 122.022 194.69Z" fill="black"/>
<path opacity="0.1" d="M124.08 220.71C123.794 221.149 123.381 221.492 122.895 221.691C122.41 221.891 121.876 221.938 121.363 221.827C120.85 221.717 120.383 221.452 120.023 221.07C119.664 220.688 119.429 220.205 119.35 219.686C119.271 219.168 119.351 218.637 119.58 218.165C119.809 217.693 120.177 217.302 120.633 217.043C121.09 216.784 121.614 216.67 122.137 216.716C122.66 216.762 123.156 216.965 123.56 217.3C124.045 217.709 124.365 218.28 124.461 218.907C124.556 219.534 124.421 220.175 124.08 220.71ZM124.08 220.71C124.288 220.388 124.399 220.013 124.399 219.63C124.4 219.247 124.291 218.872 124.085 218.549C123.878 218.227 123.584 217.97 123.236 217.81C122.888 217.649 122.501 217.592 122.122 217.646C121.743 217.699 121.387 217.86 121.096 218.109C120.806 218.359 120.593 218.686 120.483 219.053C120.373 219.42 120.371 219.811 120.477 220.179C120.583 220.547 120.793 220.877 121.08 221.13C121.297 221.319 121.551 221.46 121.827 221.542C122.102 221.625 122.392 221.647 122.677 221.607C122.961 221.567 123.234 221.466 123.476 221.311C123.719 221.157 123.925 220.951 124.08 220.71Z" fill="black"/>
<g opacity="0.1">
<path d="M86.3581 147.8C88.3694 148.222 90.2569 149.101 91.8746 150.368C93.4923 151.636 94.7971 153.258 95.6881 155.11C97.6881 158.63 99.6881 162.19 101.688 165.74C112.098 185.44 122.978 205.15 130.278 226.32C130.953 228.254 131.347 230.274 131.448 232.32C131.237 230.302 130.76 228.322 130.028 226.43C121.938 205.63 111.078 186.02 100.938 166.18C99.0581 162.58 97.1681 158.99 95.2281 155.42C94.4157 153.568 93.1919 151.926 91.6498 150.617C90.1076 149.309 88.2877 148.369 86.3281 147.87L86.3581 147.8Z" fill="black"/>
</g>
<path opacity="0.2" d="M113.789 252.39C111.364 253.112 108.865 253.555 106.339 253.71C104.608 252.627 102.987 251.378 101.499 249.98C91.8391 240.98 51.9091 184.11 49.8491 178.17C48.8565 175.069 48.657 171.768 49.2691 168.57C52.0391 168.57 56.0191 167.64 60.4491 165.91C60.2991 168.83 60.2191 172.72 60.7291 174.79C61.6191 178.39 96.7291 234.79 104.109 243.39C107.036 246.697 110.278 249.712 113.789 252.39Z" fill="white"/>
<path opacity="0.1" d="M53.2812 188.37C54.6912 188.37 60.1812 187.22 64.7312 184.56" stroke="black" stroke-width="3" stroke-miterlimit="10" stroke-linecap="round"/>
<path opacity="0.1" d="M56.2812 193.83C57.6912 193.89 63.1712 192.69 67.7312 190.02" stroke="black" stroke-width="3" stroke-miterlimit="10" stroke-linecap="round"/>
<path d="M153.803 257.5C153.803 257.55 153.803 257.58 153.753 257.63C150.753 266.48 133.853 270.53 115.753 266.63C99.7533 263.2 88.2733 254.78 87.6133 246.71C87.5242 245.582 87.6532 244.448 87.9933 243.37C90.8433 234.44 107.873 230.37 126.043 234.23C144.213 238.09 156.653 248.54 153.803 257.5Z" fill="#263238"/>
<path d="M153.749 257.63C150.749 266.48 133.849 270.53 115.749 266.63C99.7494 263.2 88.2694 254.78 87.6094 246.71C90.6094 237.85 107.539 233.81 125.609 237.71C141.579 241.11 153.099 249.55 153.749 257.63Z" fill="#455A64"/>
<path d="M192.848 185.15C186.598 202.71 170.378 212.97 156.638 208.07C142.898 203.17 136.818 184.97 143.068 167.41C149.318 149.85 165.538 139.6 179.288 144.5C193.038 149.4 199.108 167.59 192.848 185.15Z" fill="#37474F"/>
<path d="M192.41 184.98C187.15 199.81 173.46 208.46 161.89 204.34C161.7 204.24 161.45 204.18 161.26 204.09C150.08 199.63 145.26 184.57 150.44 170.02C155.12 156.95 166.38 148.64 176.98 149.78C178.343 149.949 179.684 150.264 180.98 150.72C192.55 154.84 197.7 170.2 192.41 184.98Z" fill="#455A64"/>
<path d="M187.81 183.81C183.12 196.92 171.81 205.23 161.26 204.09C150.08 199.63 145.26 184.57 150.44 170.02C155.12 156.95 166.38 148.64 176.98 149.78C188.15 154.24 192.94 169.32 187.81 183.81Z" fill="#263238"/>
<path d="M183.148 172.04L170.948 166.72C169.718 166.17 165.598 168.93 163.558 173.5C161.518 178.07 162.348 182.71 163.558 183.26L175.758 188.58L183.148 172.04Z" fill="#37474F"/>
<path d="M183.149 172.04C185.319 173.04 185.439 177.5 183.399 182.04C181.359 186.58 177.949 189.53 175.779 188.56C173.609 187.59 173.489 183.1 175.519 178.56C177.549 174.02 180.969 171.07 183.149 172.04Z" fill="#455A64"/>
<path d="M198.028 310.63C198.178 311.77 202.318 317.03 214.298 313.63C215.918 313.16 236.378 280.71 235.878 279.63C235.378 278.55 210.878 275.46 209.778 276.24C208.678 277.02 197.758 308.59 198.028 310.63Z" fill="#263238"/>
<path d="M213.59 416.21L238.28 413.52C238.28 413.52 241.28 386.62 240.97 374.9C240.66 363.18 226.51 311.76 226.51 311.76L212 308.71L213.59 416.21Z" fill="#FFC727"/>
<path opacity="0.1" d="M213.59 416.21L238.28 413.52C238.28 413.52 241.28 386.62 240.97 374.9C240.66 363.18 226.51 311.76 226.51 311.76L212 308.71L213.59 416.21Z" fill="black"/>
<path d="M182.947 307.48L211.947 308.71C211.947 308.71 218.707 355.71 218.887 370.71C219.067 385.71 213.547 416.24 213.547 416.24H145.547C145.547 416.24 168.667 368.76 182.947 307.48Z" fill="#FFC727"/>
<path opacity="0.1" d="M188.882 314.48C188.596 314.921 188.183 315.265 187.698 315.466C187.213 315.667 186.678 315.716 186.164 315.605C185.65 315.495 185.182 315.231 184.822 314.849C184.462 314.467 184.226 313.984 184.147 313.464C184.068 312.945 184.148 312.414 184.377 311.941C184.607 311.469 184.975 311.077 185.432 310.819C185.889 310.56 186.414 310.446 186.937 310.493C187.461 310.54 187.957 310.745 188.362 311.08C188.847 311.486 189.168 312.056 189.264 312.682C189.36 313.308 189.224 313.947 188.882 314.48ZM188.882 314.48C189.072 314.165 189.169 313.802 189.161 313.433C189.153 313.065 189.041 312.706 188.838 312.399C188.635 312.092 188.349 311.848 188.013 311.696C187.678 311.545 187.306 311.492 186.941 311.543C186.576 311.594 186.233 311.747 185.952 311.985C185.671 312.223 185.462 312.536 185.352 312.887C185.241 313.238 185.232 313.614 185.326 313.97C185.419 314.326 185.612 314.649 185.882 314.9C186.098 315.09 186.352 315.23 186.628 315.313C186.903 315.395 187.193 315.417 187.478 315.377C187.762 315.337 188.035 315.237 188.278 315.082C188.52 314.927 188.726 314.722 188.882 314.48Z" fill="black"/>
<path opacity="0.1" d="M208.889 314.81C208.604 315.251 208.191 315.595 207.706 315.796C207.22 315.997 206.685 316.046 206.172 315.935C205.658 315.825 205.19 315.561 204.83 315.179C204.47 314.797 204.234 314.314 204.155 313.795C204.075 313.275 204.156 312.744 204.385 312.272C204.615 311.799 204.982 311.407 205.44 311.149C205.897 310.89 206.422 310.777 206.945 310.823C207.468 310.87 207.965 311.075 208.369 311.41C208.853 311.818 209.173 312.387 209.269 313.012C209.364 313.638 209.23 314.277 208.889 314.81ZM208.889 314.81C209.078 314.494 209.174 314.131 209.165 313.763C209.156 313.394 209.043 313.036 208.838 312.73C208.634 312.423 208.348 312.181 208.011 312.03C207.675 311.88 207.303 311.828 206.939 311.88C206.574 311.932 206.232 312.087 205.951 312.325C205.671 312.564 205.464 312.878 205.354 313.229C205.244 313.581 205.236 313.956 205.331 314.312C205.426 314.668 205.619 314.99 205.889 315.24C206.106 315.429 206.361 315.569 206.637 315.651C206.913 315.733 207.203 315.754 207.488 315.713C207.773 315.672 208.045 315.57 208.287 315.414C208.529 315.259 208.734 315.053 208.889 314.81Z" fill="black"/>
<path opacity="0.1" d="M210.823 411.79C210.536 412.23 210.123 412.572 209.638 412.771C209.152 412.971 208.618 413.019 208.105 412.908C207.592 412.797 207.125 412.533 206.765 412.15C206.406 411.768 206.171 411.285 206.092 410.767C206.013 410.248 206.093 409.717 206.322 409.245C206.552 408.773 206.919 408.382 207.375 408.123C207.832 407.864 208.356 407.75 208.879 407.796C209.402 407.842 209.898 408.046 210.303 408.38C210.789 408.788 211.111 409.359 211.206 409.987C211.302 410.614 211.166 411.255 210.823 411.79ZM210.823 411.79C211.03 411.468 211.141 411.093 211.142 410.71C211.142 410.327 211.033 409.952 210.827 409.629C210.621 409.307 210.326 409.05 209.978 408.89C209.63 408.729 209.244 408.673 208.864 408.726C208.485 408.779 208.129 408.94 207.838 409.189C207.548 409.439 207.335 409.767 207.225 410.134C207.116 410.5 207.114 410.891 207.219 411.259C207.325 411.627 207.535 411.957 207.823 412.21C208.039 412.399 208.293 412.54 208.569 412.623C208.844 412.705 209.134 412.727 209.419 412.687C209.704 412.647 209.976 412.546 210.219 412.392C210.461 412.237 210.667 412.032 210.823 411.79Z" fill="black"/>
<path opacity="0.1" d="M156.452 411.45C156.166 411.891 155.754 412.235 155.268 412.436C154.783 412.637 154.248 412.685 153.734 412.575C153.221 412.465 152.753 412.201 152.392 411.819C152.032 411.436 151.797 410.953 151.717 410.434C151.638 409.915 151.718 409.384 151.948 408.911C152.177 408.439 152.545 408.047 153.002 407.788C153.459 407.53 153.984 407.416 154.508 407.463C155.031 407.51 155.528 407.714 155.932 408.05C156.416 408.457 156.735 409.027 156.831 409.652C156.927 410.277 156.792 410.916 156.452 411.45ZM156.452 411.45C156.641 411.134 156.736 410.77 156.727 410.402C156.718 410.034 156.605 409.676 156.401 409.369C156.197 409.063 155.91 408.82 155.574 408.67C155.238 408.52 154.866 408.467 154.501 408.52C154.136 408.572 153.794 408.726 153.514 408.965C153.233 409.204 153.026 409.517 152.916 409.869C152.807 410.22 152.799 410.596 152.893 410.952C152.988 411.308 153.182 411.629 153.452 411.88C153.669 412.069 153.924 412.209 154.2 412.291C154.475 412.372 154.766 412.393 155.05 412.353C155.335 412.312 155.608 412.21 155.85 412.054C156.092 411.898 156.297 411.692 156.452 411.45Z" fill="black"/>
<path opacity="0.2" d="M199.019 308.16C199.019 308.16 201.089 359.46 199.019 373.93C197.769 382.66 184.109 416.21 184.109 416.21H200.829C200.829 416.21 207.829 385.45 209.299 373.93C210.769 362.41 204.109 308.37 204.109 308.37L199.019 308.16Z" fill="white"/>
<path opacity="0.2" d="M205.938 308.45C205.938 308.45 212.708 357.71 211.988 373.73C211.588 382.54 205.988 416.21 205.988 416.21H208.277C208.277 416.21 213.827 385.65 214.367 374.06C214.977 361.06 207.188 308.44 207.188 308.44L205.938 308.45Z" fill="white"/>
<path d="M184.111 418L195.061 417.55C195.061 417.55 187.631 384.32 174.281 386.05L184.111 418Z" fill="#37474F"/>
<path d="M152.727 418H184.107C184.107 418 183.727 387.58 174.307 386.05C164.887 384.52 152.727 418 152.727 418Z" fill="#455A64"/>
<path d="M286.799 235.98C286.639 240.29 284.249 274.45 280.799 278.08C277.349 281.71 262.969 287.75 252.099 289.37C237.669 291.52 218.099 286.06 210.459 280.24C202.819 274.42 192.459 226.9 194.649 225.02C196.839 223.14 241.589 216.26 258.519 219.33C275.449 222.4 286.939 232.09 286.799 235.98Z" fill="#37474F"/>
<path d="M280.507 276.11C275.11 278.861 269.53 281.236 263.807 283.22C258.087 285.22 252.127 286.63 246.087 286.52C240.041 286.362 234.03 285.534 228.167 284.05C222.28 282.616 216.48 280.843 210.797 278.74C216.418 281.013 222.197 282.878 228.087 284.32C233.971 285.863 240.008 286.749 246.087 286.96C252.207 287.02 258.197 285.49 263.907 283.49C269.634 281.491 275.186 279.023 280.507 276.11Z" fill="#263238"/>
<path d="M281.282 271.4C275.653 274.273 269.833 276.752 263.862 278.82C257.862 280.82 251.692 282.38 245.392 282.26C239.086 282.094 232.818 281.233 226.702 279.69C220.566 278.196 214.522 276.346 208.602 274.15C214.456 276.522 220.471 278.477 226.602 280C232.737 281.607 239.033 282.526 245.372 282.74C251.752 282.81 257.992 281.21 263.952 279.12C269.932 277.03 275.728 274.448 281.282 271.4Z" fill="#263238"/>
<path d="M281.982 267C276.168 269.977 270.153 272.547 263.982 274.69C257.812 276.79 251.382 278.38 244.852 278.26C238.321 278.08 231.829 277.185 225.492 275.59C219.136 274.038 212.876 272.118 206.742 269.84C212.815 272.297 219.054 274.322 225.412 275.9C231.768 277.56 238.287 278.512 244.852 278.74C251.452 278.8 257.922 277.15 264.092 274.99C270.264 272.82 276.247 270.147 281.982 267Z" fill="#263238"/>
<path d="M281.388 262.97C275.573 265.946 269.559 268.515 263.388 270.66C257.208 272.77 250.778 274.35 244.248 274.23C237.717 274.055 231.224 273.16 224.888 271.56C218.535 270.01 212.278 268.09 206.148 265.81C212.22 268.27 218.459 270.295 224.818 271.87C231.17 273.535 237.686 274.488 244.248 274.71C250.848 274.78 257.318 273.12 263.488 270.96C269.664 268.792 275.651 266.12 281.388 262.97Z" fill="#263238"/>
<path d="M282.038 258.32C276.009 261.418 269.771 264.092 263.368 266.32C256.978 268.5 250.368 270.14 243.558 270.02C236.81 269.834 230.103 268.905 223.558 267.25C216.977 265.631 210.495 263.628 204.148 261.25C210.434 263.797 216.894 265.893 223.478 267.52C230.056 269.238 236.804 270.224 243.598 270.46C250.438 270.53 257.128 268.82 263.518 266.58C269.904 264.33 276.098 261.568 282.038 258.32Z" fill="#263238"/>
<path d="M283.1 253.19C276.906 256.354 270.501 259.087 263.93 261.37C257.37 263.61 250.53 265.29 243.59 265.17C236.643 264.981 229.738 264.025 223 262.32C216.242 260.676 209.587 258.633 203.07 256.2C209.524 258.817 216.158 260.966 222.92 262.63C229.675 264.392 236.604 265.398 243.58 265.63C250.58 265.7 257.48 263.95 264.04 261.63C270.612 259.338 276.986 256.515 283.1 253.19Z" fill="#263238"/>
<path d="M283.938 248.32C277.507 251.615 270.854 254.458 264.028 256.83C257.218 259.15 250.108 260.9 242.898 260.77C235.685 260.577 228.514 259.587 221.518 257.82C214.503 256.105 207.595 253.982 200.828 251.46C207.535 254.168 214.426 256.397 221.448 258.13C228.461 259.961 235.655 261.011 242.898 261.26C250.188 261.33 257.328 259.51 264.138 257.13C270.966 254.734 277.587 251.787 283.938 248.32Z" fill="#263238"/>
<path d="M284.387 243.63C277.788 247.022 270.958 249.943 263.947 252.37C256.947 254.76 249.647 256.56 242.237 256.43C234.815 256.249 227.436 255.243 220.237 253.43C213.027 251.672 205.928 249.488 198.977 246.89C205.867 249.667 212.945 251.956 220.157 253.74C227.349 255.62 234.727 256.697 242.157 256.95C249.647 257.03 256.977 255.16 263.977 252.71C271.016 250.244 277.842 247.207 284.387 243.63Z" fill="#263238"/>
<path d="M283.671 238.7C277.065 242.084 270.232 245.004 263.221 247.44C256.221 249.83 248.921 251.63 241.521 251.5C234.1 251.308 226.723 250.302 219.521 248.5C212.319 246.723 205.227 244.526 198.281 241.92C205.172 244.697 212.249 246.986 219.461 248.77C226.654 250.646 234.032 251.722 241.461 251.98C248.951 252.06 256.281 250.19 263.281 247.74C270.312 245.286 277.132 242.263 283.671 238.7Z" fill="#263238"/>
<path d="M282.947 233.77C276.343 237.155 269.509 240.072 262.497 242.5C255.497 244.9 248.197 246.69 240.797 246.56C233.375 246.378 225.996 245.372 218.797 243.56C211.591 241.804 204.495 239.624 197.547 237.03C204.438 239.804 211.515 242.089 218.727 243.87C225.919 245.754 233.297 246.834 240.727 247.09C248.217 247.16 255.547 245.29 262.547 242.85C269.583 240.384 276.405 237.347 282.947 233.77Z" fill="#263238"/>
<path d="M282.283 228.83C275.681 232.222 268.847 235.143 261.833 237.57C254.833 239.96 247.533 241.76 240.133 241.63C232.711 241.448 225.332 240.442 218.133 238.63C210.927 236.871 203.831 234.687 196.883 232.09C203.773 234.869 210.851 237.158 218.063 238.94C225.255 240.82 232.633 241.897 240.063 242.15C247.553 242.23 254.883 240.36 261.883 237.91C268.919 235.444 275.741 232.407 282.283 228.83Z" fill="#263238"/>
<path d="M281.512 223.9C274.906 227.284 268.073 230.204 261.062 232.64C254.062 235.03 246.762 236.83 239.352 236.7C231.931 236.508 224.553 235.502 217.352 233.7C210.147 231.936 203.051 229.752 196.102 227.16C202.993 229.925 210.07 232.2 217.282 233.97C224.475 235.845 231.853 236.922 239.282 237.18C246.772 237.26 254.102 235.39 261.102 232.94C268.139 230.485 274.965 227.462 281.512 223.9Z" fill="#263238"/>
<path d="M260.727 113.32C262.667 112.2 294.607 109.87 295.367 109.88C296.127 109.89 323.877 127.88 325.957 130.2C328.037 132.52 320.837 237.32 320.617 238.66C320.397 240 297.617 252.13 294.437 253.2C291.257 254.27 260.727 113.32 260.727 113.32Z" fill="#FFC727"/>
<path opacity="0.1" d="M260.727 113.32C262.667 112.2 294.607 109.87 295.367 109.88C296.127 109.89 323.877 127.88 325.957 130.2C328.037 132.52 320.837 237.32 320.617 238.66C320.397 240 297.617 252.13 294.437 253.2C291.257 254.27 260.727 113.32 260.727 113.32Z" fill="black"/>
<path opacity="0.1" d="M326.107 130.61L269.167 151.61C264.277 129.86 260.727 113.32 260.727 113.32C262.677 112.21 294.607 109.88 295.367 109.89C296.127 109.9 323.887 127.89 325.947 130.21C326.028 130.33 326.083 130.467 326.107 130.61Z" fill="black"/>
<path d="M143.891 159.32C143.721 166.25 172.641 237.98 187.431 263.63C187.951 264.53 197.431 264.77 209.311 263.53C213.141 263.13 214.941 233.43 222.311 233.53C228.471 233.64 246.641 260.05 253.151 259.8C263.701 259.4 291.151 255.11 294.491 253.17C297.401 251.49 300.971 144.92 300.081 140.48C299.191 136.04 264.181 114.15 260.731 113.32C257.281 112.49 170.601 125.79 167.501 127.46C164.401 129.13 143.941 157.05 143.891 159.32Z" fill="#FFC727"/>
<path opacity="0.1" d="M152.721 162.39C152.435 162.83 152.021 163.172 151.536 163.372C151.051 163.571 150.516 163.619 150.003 163.508C149.49 163.397 149.023 163.133 148.664 162.75C148.304 162.368 148.07 161.885 147.991 161.367C147.911 160.848 147.992 160.317 148.221 159.845C148.45 159.373 148.817 158.982 149.274 158.723C149.73 158.464 150.255 158.35 150.777 158.396C151.3 158.442 151.797 158.646 152.201 158.98C152.69 159.387 153.012 159.958 153.108 160.586C153.204 161.215 153.066 161.856 152.721 162.39ZM152.721 162.39C152.911 162.074 153.008 161.711 153 161.343C152.993 160.975 152.881 160.616 152.678 160.309C152.475 160.001 152.189 159.758 151.853 159.606C151.517 159.455 151.145 159.401 150.78 159.452C150.416 159.504 150.073 159.657 149.791 159.895C149.51 160.133 149.302 160.446 149.191 160.797C149.08 161.148 149.071 161.524 149.165 161.88C149.259 162.236 149.452 162.559 149.721 162.81C149.937 163 150.192 163.14 150.467 163.223C150.743 163.305 151.033 163.327 151.317 163.287C151.602 163.247 151.875 163.146 152.117 162.992C152.359 162.837 152.565 162.632 152.721 162.39Z" fill="black"/>
<path opacity="0.1" d="M192.077 259.68C191.791 260.121 191.379 260.465 190.893 260.666C190.408 260.867 189.873 260.915 189.359 260.805C188.846 260.695 188.378 260.431 188.017 260.049C187.657 259.666 187.422 259.183 187.342 258.664C187.263 258.145 187.343 257.614 187.573 257.141C187.802 256.669 188.17 256.277 188.627 256.018C189.084 255.76 189.609 255.646 190.133 255.693C190.656 255.74 191.153 255.944 191.557 256.28C192.041 256.687 192.36 257.257 192.456 257.882C192.552 258.507 192.417 259.146 192.077 259.68ZM192.077 259.68C192.266 259.364 192.361 259 192.352 258.632C192.343 258.264 192.23 257.906 192.026 257.599C191.822 257.293 191.535 257.05 191.199 256.9C190.863 256.749 190.491 256.697 190.126 256.75C189.761 256.802 189.419 256.956 189.139 257.195C188.858 257.434 188.651 257.747 188.541 258.099C188.432 258.45 188.424 258.826 188.518 259.182C188.613 259.538 188.807 259.859 189.077 260.11C189.294 260.299 189.549 260.439 189.825 260.521C190.1 260.602 190.391 260.623 190.675 260.583C190.96 260.542 191.233 260.44 191.475 260.284C191.717 260.128 191.922 259.922 192.077 259.68Z" fill="black"/>
<path opacity="0.1" d="M290.741 249.7C290.455 250.141 290.043 250.485 289.557 250.686C289.072 250.887 288.537 250.935 288.023 250.825C287.51 250.715 287.042 250.451 286.681 250.069C286.321 249.686 286.086 249.203 286.006 248.684C285.927 248.165 286.007 247.634 286.237 247.161C286.466 246.689 286.834 246.297 287.291 246.038C287.748 245.78 288.274 245.666 288.797 245.713C289.32 245.76 289.817 245.964 290.221 246.3C290.705 246.707 291.025 247.277 291.12 247.902C291.216 248.527 291.081 249.166 290.741 249.7ZM290.741 249.7C290.93 249.384 291.025 249.02 291.016 248.652C291.007 248.284 290.894 247.926 290.69 247.619C290.486 247.313 290.199 247.07 289.863 246.92C289.527 246.77 289.155 246.717 288.79 246.77C288.426 246.822 288.083 246.976 287.803 247.215C287.522 247.454 287.315 247.767 287.205 248.119C287.096 248.47 287.088 248.846 287.182 249.202C287.277 249.558 287.471 249.879 287.741 250.13C287.958 250.319 288.213 250.459 288.489 250.541C288.765 250.622 289.055 250.643 289.339 250.603C289.624 250.562 289.897 250.46 290.139 250.304C290.381 250.148 290.586 249.942 290.741 249.7Z" fill="black"/>
<path opacity="0.1" d="M292.483 143.32C292.198 143.761 291.785 144.105 291.3 144.306C290.814 144.507 290.279 144.555 289.765 144.445C289.252 144.335 288.784 144.071 288.424 143.689C288.063 143.306 287.828 142.824 287.749 142.304C287.669 141.785 287.749 141.254 287.979 140.781C288.208 140.309 288.576 139.917 289.033 139.659C289.491 139.4 290.016 139.286 290.539 139.333C291.062 139.38 291.559 139.584 291.963 139.92C292.449 140.326 292.77 140.896 292.866 141.522C292.961 142.148 292.825 142.787 292.483 143.32ZM292.483 143.32C292.672 143.004 292.767 142.641 292.758 142.272C292.749 141.904 292.636 141.546 292.432 141.239C292.228 140.933 291.941 140.69 291.605 140.54C291.269 140.39 290.897 140.338 290.532 140.39C290.168 140.442 289.825 140.597 289.545 140.835C289.264 141.074 289.057 141.387 288.948 141.739C288.838 142.09 288.83 142.466 288.925 142.822C289.019 143.178 289.213 143.5 289.483 143.75C289.7 143.939 289.955 144.079 290.231 144.161C290.507 144.242 290.797 144.263 291.082 144.223C291.366 144.182 291.639 144.08 291.881 143.924C292.123 143.769 292.328 143.562 292.483 143.32Z" fill="black"/>
<path d="M224.773 250.04C238.173 248.84 250.213 238.34 248.173 220.93C245.813 200.83 233.173 192.88 218.363 193.93C208.453 194.61 194.783 203.99 196.583 223.2C198.683 245.63 215.953 250.83 224.773 250.04Z" fill="#FFC727"/>
<g opacity="0.1">
<path d="M224.773 250.04C238.173 248.84 250.213 238.34 248.173 220.93C245.813 200.83 233.173 192.88 218.363 193.93C208.453 194.61 194.783 203.99 196.583 223.2C198.683 245.63 215.953 250.83 224.773 250.04Z" fill="black"/>
</g>
<path d="M223.359 247.54C235.859 246.42 247.089 236.62 245.189 220.38C242.989 201.63 231.189 194.21 217.369 195.16C208.129 195.79 195.369 204.54 197.049 222.46C199.009 243.42 215.129 248.32 223.359 247.54Z" fill="#FFC727"/>
<g opacity="0.1">
<path d="M225.052 244.48C236.702 241.21 242.052 229.21 239.142 217.9C237.792 212.59 235.582 207.22 231.412 203.53C225.862 198.42 216.732 198.13 210.492 202.12C207.63 204.031 205.322 206.663 203.802 209.75C200.072 217.23 201.072 226.4 204.512 233.82C207.882 241.56 216.692 246.62 225.052 244.48ZM225.052 244.48C216.642 246.71 207.822 241.64 204.232 233.96C200.552 226.45 199.322 217.11 203.042 209.37C204.911 205.46 207.99 202.255 211.822 200.23C218.272 197.23 226.682 197.91 231.982 202.9C236.232 206.78 238.362 212.32 239.622 217.79C242.342 229.13 236.722 241.36 225.052 244.48Z" fill="black"/>
</g>
<path d="M224.883 243.63C234.223 241.09 241.743 231.43 238.683 218.04C235.143 202.59 225.493 197.87 215.113 200.44C208.173 202.16 199.403 211.14 202.463 225.96C206.043 243.32 218.723 245.32 224.883 243.63Z" fill="#FFC727"/>
<g opacity="0.2">
<path d="M224.202 240.18C232.062 238.05 238.392 229.92 235.812 218.66C232.812 205.66 224.712 201.66 215.982 203.85C210.152 205.3 202.762 212.85 205.342 225.32C208.352 239.9 219.022 241.59 224.202 240.18Z" fill="white"/>
</g>
<path d="M301.593 308.71C301.593 309.86 299.123 318.95 286.803 317.06C285.133 316.8 257.323 286.59 257.683 285.44C257.873 284.83 261.253 277.88 267.583 275.59C273.913 273.3 280.773 275.36 281.323 275.66C282.473 276.32 301.603 306.66 301.593 308.71Z" fill="#263238"/>
<path d="M304.172 302.72L313.592 303.83C313.592 303.83 345.862 346.47 351.242 357.23C356.622 367.99 365.842 407.75 365.842 407.75L342.592 416.21L304.172 302.72Z" fill="#FFC727"/>
<path opacity="0.1" d="M304.172 302.72L313.592 303.83C313.592 303.83 345.862 346.47 351.242 357.23C356.622 367.99 365.842 407.75 365.842 407.75L342.592 416.21L304.172 302.72Z" fill="black"/>
<path d="M273.437 312.23L304.167 302.72C304.167 302.72 333.847 355.99 336.827 370.72C340.177 387.24 342.587 416.25 342.587 416.25H262.867C262.867 416.25 273.437 372.17 273.437 312.23Z" fill="#FFC727"/>
<path opacity="0.1" d="M280.104 318.71C279.817 319.149 279.404 319.492 278.919 319.691C278.434 319.891 277.899 319.938 277.386 319.827C276.873 319.717 276.406 319.452 276.047 319.07C275.687 318.688 275.452 318.205 275.373 317.686C275.294 317.168 275.375 316.637 275.604 316.165C275.833 315.693 276.2 315.302 276.657 315.043C277.113 314.784 277.637 314.67 278.16 314.716C278.683 314.762 279.179 314.965 279.584 315.3C280.071 315.708 280.392 316.279 280.488 316.907C280.583 317.534 280.447 318.175 280.104 318.71ZM280.104 318.71C280.294 318.394 280.391 318.031 280.383 317.663C280.376 317.295 280.264 316.936 280.061 316.629C279.858 316.321 279.572 316.078 279.236 315.926C278.9 315.775 278.528 315.721 278.163 315.772C277.798 315.823 277.455 315.977 277.174 316.215C276.893 316.453 276.685 316.765 276.574 317.117C276.463 317.468 276.454 317.844 276.548 318.2C276.642 318.556 276.834 318.879 277.104 319.13C277.32 319.319 277.574 319.46 277.85 319.542C278.125 319.625 278.415 319.647 278.7 319.607C278.985 319.567 279.258 319.466 279.5 319.311C279.742 319.157 279.948 318.951 280.104 318.71Z" fill="black"/>
<path opacity="0.1" d="M337.639 411.45C337.354 411.891 336.941 412.235 336.456 412.436C335.97 412.637 335.435 412.685 334.922 412.575C334.408 412.465 333.94 412.201 333.58 411.819C333.22 411.436 332.984 410.953 332.905 410.434C332.825 409.915 332.906 409.384 333.135 408.911C333.365 408.439 333.732 408.047 334.19 407.788C334.647 407.53 335.172 407.416 335.695 407.463C336.219 407.51 336.715 407.714 337.119 408.05C337.605 408.456 337.926 409.026 338.022 409.652C338.118 410.278 337.982 410.917 337.639 411.45ZM337.639 411.45C337.828 411.134 337.924 410.77 337.915 410.402C337.906 410.034 337.793 409.676 337.588 409.369C337.384 409.063 337.098 408.82 336.761 408.67C336.425 408.52 336.053 408.467 335.689 408.52C335.324 408.572 334.982 408.726 334.701 408.965C334.421 409.204 334.214 409.517 334.104 409.869C333.994 410.22 333.986 410.596 334.081 410.952C334.176 411.308 334.369 411.629 334.639 411.88C334.856 412.069 335.111 412.209 335.387 412.291C335.663 412.372 335.953 412.393 336.238 412.353C336.523 412.312 336.795 412.21 337.037 412.054C337.279 411.898 337.484 411.692 337.639 411.45Z" fill="black"/>
<path opacity="0.1" d="M272.608 411.45C272.323 411.891 271.91 412.235 271.425 412.436C270.939 412.637 270.404 412.685 269.891 412.575C269.377 412.465 268.909 412.201 268.549 411.819C268.188 411.436 267.953 410.953 267.874 410.434C267.794 409.915 267.874 409.384 268.104 408.911C268.333 408.439 268.701 408.047 269.158 407.788C269.616 407.53 270.141 407.416 270.664 407.463C271.187 407.51 271.684 407.714 272.088 408.05C272.574 408.456 272.895 409.026 272.991 409.652C273.086 410.278 272.95 410.917 272.608 411.45ZM272.608 411.45C272.793 411.135 272.886 410.774 272.875 410.409C272.865 410.044 272.751 409.689 272.548 409.385C272.344 409.082 272.059 408.842 271.725 408.694C271.392 408.545 271.023 408.494 270.661 408.545C270.299 408.597 269.96 408.75 269.681 408.987C269.402 409.223 269.196 409.533 269.086 409.882C268.976 410.23 268.967 410.602 269.059 410.956C269.152 411.309 269.342 411.63 269.608 411.88C269.825 412.069 270.08 412.209 270.356 412.291C270.632 412.372 270.922 412.393 271.207 412.353C271.491 412.312 271.764 412.21 272.006 412.054C272.248 411.898 272.453 411.692 272.608 411.45Z" fill="black"/>
<path opacity="0.1" d="M303.768 310.76C303.475 311.194 303.058 311.528 302.571 311.72C302.084 311.912 301.55 311.952 301.041 311.835C300.531 311.717 300.068 311.448 299.714 311.063C299.36 310.678 299.131 310.194 299.057 309.676C298.983 309.158 299.068 308.63 299.301 308.161C299.533 307.692 299.902 307.304 300.359 307.049C300.816 306.794 301.339 306.683 301.86 306.732C302.381 306.78 302.876 306.985 303.278 307.32C303.77 307.732 304.091 308.311 304.182 308.946C304.272 309.581 304.125 310.227 303.768 310.76ZM303.768 310.76C303.957 310.444 304.052 310.08 304.043 309.712C304.034 309.344 303.921 308.986 303.717 308.679C303.513 308.373 303.226 308.13 302.89 307.98C302.554 307.829 302.182 307.777 301.817 307.83C301.452 307.882 301.11 308.036 300.83 308.275C300.549 308.514 300.342 308.827 300.232 309.179C300.123 309.53 300.115 309.906 300.209 310.262C300.304 310.618 300.498 310.939 300.768 311.19C300.985 311.379 301.24 311.519 301.516 311.601C301.791 311.682 302.082 311.703 302.366 311.663C302.651 311.622 302.924 311.52 303.166 311.364C303.408 311.208 303.613 311.002 303.768 310.76Z" fill="black"/>
<path opacity="0.2" d="M290.578 306.93L297.578 304.75C297.578 304.75 321.128 355.59 324.448 364.16C327.768 372.73 332.818 416.21 332.818 416.21H316.348C316.348 416.21 315.848 376.72 313.518 366.91C311.188 357.1 290.578 306.93 290.578 306.93Z" fill="white"/>
<path d="M310.098 418L321.738 417.51C321.738 417.51 311.558 380.86 291.148 383.07L310.098 418Z" fill="#37474F"/>
<path d="M273.023 418H312.283C312.283 418 305.203 383.07 291.123 383.07C279.723 383.07 273.023 418 273.023 418Z" fill="#455A64"/>
<path d="M151.628 86.8198C149.988 88.1898 139.948 96.8198 139.688 99.9598C139.428 103.1 138.008 125.77 147.098 139.27C148.018 140.64 160.388 143.27 160.388 143.27L151.628 86.8198Z" fill="#FFC727"/>
<path opacity="0.1" d="M151.628 86.8198C149.988 88.1898 139.948 96.8198 139.688 99.9598C139.428 103.1 138.008 125.77 147.098 139.27C148.018 140.64 160.388 143.27 160.388 143.27L151.628 86.8198Z" fill="black"/>
<path d="M214.281 38.9301C227.971 38.5801 264.761 41.7901 276.281 57.6101C287.801 73.4301 291.381 108.61 291.381 108.61L273.601 116.44C273.601 116.44 277.511 144.97 268.881 160.51L214.281 38.9301Z" fill="#FFC727"/>
<path opacity="0.1" d="M214.281 38.9301C227.971 38.5801 264.761 41.7901 276.281 57.6101C287.801 73.4301 291.381 108.61 291.381 108.61L273.601 116.44C273.601 116.44 277.511 144.97 268.881 160.51L214.281 38.9301Z" fill="black"/>
<path d="M153.706 69.88C145.656 87.74 157.276 152.32 163.396 167.32C169.516 182.32 194.076 195.64 219.136 191.43C244.196 187.22 266.816 173.43 270.266 155.86C273.716 138.29 265.516 66.76 252.366 53.43C241.536 42.43 224.026 36.18 198.446 40.33C179.276 43.47 162.996 49.26 153.706 69.88Z" fill="#FFC727"/>
<g opacity="0.1">
<path d="M153.708 69.8798C146.708 88.3298 154.848 133.12 159.538 153.03C160.586 157.574 161.901 162.052 163.478 166.44C168.868 179.44 182.868 186.8 195.938 189.97C204.994 191.992 214.391 191.927 223.418 189.78C240.368 185.86 260.468 177.18 267.838 160.34L268.468 158.78L268.908 157.15C269.232 156.069 269.459 154.961 269.588 153.84C271.018 137.63 269.038 121.25 266.978 105.16C264.828 91.2198 260.918 64.2998 251.978 53.8298C241.818 43.2298 226.648 39.0798 212.278 39.3198C198.418 39.8498 183.988 42.0398 171.808 49.0298C163.698 53.7798 157.588 61.3698 153.748 69.8798H153.708ZM153.708 69.8798C157.508 61.3398 163.588 53.7098 171.708 48.8798C179.828 44.0498 189.058 41.7598 198.258 40.2298C202.891 39.4709 207.567 39.0066 212.258 38.8398C226.868 38.4198 242.258 42.4098 252.768 53.0798C254.746 55.3223 256.362 57.8595 257.558 60.5998C259.89 66.0086 261.769 71.601 263.178 77.3198C268.899 100.106 271.857 123.497 271.988 146.99C271.878 151.71 271.608 156.69 269.688 161.09C261.968 178.58 241.378 187.48 223.778 191.45C214.507 193.55 204.877 193.499 195.628 191.3C182.258 187.87 168.078 180.13 162.718 166.73C161.188 162.29 159.925 157.762 158.938 153.17C154.588 133.1 146.598 88.3198 153.708 69.8798Z" fill="black"/>
</g>
<path d="M278.668 63.43C268.998 66.62 264.998 81.34 269.138 97.52C273.278 113.7 283.078 120.3 291.138 118.97C297.918 117.86 307.938 108.31 303.458 87.3901C298.668 64.8801 286.028 60.99 278.668 63.43Z" fill="#FFC727"/>
<g opacity="0.1">
<path d="M282.457 67.0798C268.457 72.7498 273.057 98.3298 281.457 107.18C286.697 113.13 294.727 113.96 299.457 107.04C303.787 100.89 303.587 92.6598 302.047 85.5598C300.267 76.1798 293.737 64.0498 282.417 67.0798H282.457ZM282.457 67.0798C296.677 63.4898 303.457 81.6998 304.457 92.9398C304.847 98.1598 304.167 103.73 301.077 108.15C295.617 116.15 286.077 115.41 280.187 108.32C271.917 98.9898 268.487 72.6098 282.457 67.0798Z" fill="black"/>
</g>
<path d="M285.797 74.2402C281.487 76.3702 280.237 84.9202 282.797 94.0402C285.357 103.16 290.097 106.62 293.747 105.61C296.817 104.76 301.037 98.9802 298.147 87.1602C295.027 74.4402 289.077 72.6202 285.797 74.2402Z" fill="#263238"/>
<path opacity="0.2" d="M216.468 191.85C212.955 192.27 209.41 192.367 205.878 192.14L205.048 191.72C195.048 186.61 181.778 177.99 178.318 165.16C174.858 152.33 169.318 92.2901 169.698 76.7701C170.058 62.6701 179.898 49.9101 187.698 42.5601C190.838 41.7501 194.098 41.1001 197.448 40.5601C185.878 50.9201 180.838 63.9601 180.928 74.3201C181.028 85.1501 187.538 147.86 191.758 163.64C194.568 174.14 207.898 185.47 216.468 191.85Z" fill="white"/>
<path d="M165.347 69.3201C158.347 80.1801 161.207 122.61 168.687 133.32C176.167 144.03 192.687 144.74 205.797 143.51C218.907 142.28 242.037 136.44 247.607 127.22C253.177 118 246.517 70.5701 235.977 60.0801C223.587 47.7401 177.027 51.2301 165.347 69.3201Z" fill="#263238"/>
<path d="M167.1 70.6099C160.4 80.9899 163.1 121.55 170.29 131.77C177.48 141.99 193.2 142.69 205.76 141.52C218.32 140.35 240.42 134.75 245.76 125.94C251.1 117.13 244.76 71.7799 234.65 61.7499C222.78 49.9599 178.28 53.3199 167.1 70.6099Z" fill="#37474F"/>
<path d="M172.282 123.32C172.282 123.32 167.922 111.05 170.662 109.32C173.402 107.59 194.752 126.32 194.662 126.48C194.572 126.64 175.662 115.98 173.182 116.63C171.732 117.07 172.282 123.32 172.282 123.32Z" fill="#FFC727"/>
<path opacity="0.4" d="M171.653 119.85C171.653 119.85 169.343 111.38 171.423 110.69C173.503 110 191.363 124.16 191.283 124.32C191.203 124.48 174.713 114.94 172.553 115.49C171.353 115.81 171.653 119.85 171.653 119.85Z" fill="white"/>
<path d="M236.413 116.52C236.413 116.52 238.803 102.07 234.413 100.99C231.103 100.17 211.413 124.56 211.563 124.76C211.713 124.96 229.473 109.59 233.073 109.65C234.743 109.67 236.413 116.52 236.413 116.52Z" fill="#FFC727"/>
<path opacity="0.4" d="M236.037 112.87C236.037 112.87 236.807 102.44 234.087 102.44C231.207 102.44 216.697 119.44 216.797 119.63C216.897 119.82 230.147 108.26 233.347 108.55C234.817 108.68 236.037 112.87 236.037 112.87Z" fill="white"/>
<g opacity="0.2">
<path d="M167.417 93.95C166.172 86.6353 167.147 79.1153 170.217 72.36C173.217 67.06 181.697 63.96 187.377 62.79C184.697 64.97 181.967 66.88 179.377 68.85C177.447 70.37 175.377 71.78 174.017 73.74C170.937 80.09 169.567 87.11 167.447 93.95H167.417Z" fill="white"/>
</g>
<path d="M351.168 165.95C350.038 184.55 337.318 198.95 322.748 198.03C308.178 197.11 297.278 181.32 298.418 162.75C299.558 144.18 312.268 129.75 326.838 130.67C341.408 131.59 352.278 147.32 351.168 165.95Z" fill="#37474F"/>
<path d="M350.697 165.91C349.767 181.62 339.017 193.73 326.757 192.99C326.547 192.99 326.297 192.99 326.087 192.93C314.087 191.75 305.277 178.63 306.217 163.21C307.077 149.36 315.597 138.21 326.087 136.39C327.445 136.171 328.823 136.097 330.197 136.17C342.447 136.92 351.667 150.24 350.697 165.91Z" fill="#455A64"/>
<path d="M345.947 166.06C345.087 179.96 336.577 191.06 326.087 192.93C314.087 191.75 305.277 178.63 306.217 163.21C307.077 149.36 315.597 138.21 326.087 136.39C338.057 137.56 346.847 150.69 345.947 166.06Z" fill="#263238"/>
<path d="M338.202 156.06L325.012 154.32C323.672 154.13 320.482 157.93 319.792 162.88C319.102 167.83 321.192 172.06 322.532 172.25L335.722 173.97L338.202 156.06Z" fill="#37474F"/>
<path d="M338.203 156.06C340.563 156.38 341.923 160.66 341.203 165.61C340.483 170.56 338.053 174.32 335.693 173.99C333.333 173.66 331.973 169.38 332.693 164.43C333.413 159.48 335.843 155.73 338.203 156.06Z" fill="#455A64"/>
<path d="M318.212 228.22C317.002 228.81 318.682 237.71 320.142 238.3C321.602 238.89 344.842 238.75 353.562 236.71C362.282 234.67 379.162 223.47 379.482 222.17C379.802 220.87 377.912 213.09 376.392 213.45C374.872 213.81 357.282 222.8 348.802 224.32C340.322 225.84 320.342 227.17 318.212 228.22Z" fill="#37474F"/>
<path d="M326.28 286.24C325.18 286.62 318.86 308.72 318.79 310.52C318.72 312.32 321.24 317.83 325.31 320.89C329.38 323.95 336.95 324.89 338.31 323.96C339.67 323.03 350.01 302.65 350.05 300.21C350.09 297.77 337.55 282.38 326.28 286.24Z" fill="#37474F"/>
<path d="M350.052 300.22C350.052 302.65 339.722 323.02 338.312 323.96C337.617 324.263 336.856 324.38 336.102 324.3C338.172 317.12 341.472 305.4 341.752 302.93C342.162 299.51 337.312 290.68 333.422 286.08C342.282 288.32 350.072 298.32 350.052 300.22Z" fill="#263238"/>
<path d="M367.153 325.32C368.793 328.23 376.553 329.32 383.963 326.67C387.253 325.49 394.153 309.37 394.493 303.92C394.833 298.47 394.873 281.92 394.393 280.44C393.913 278.96 374.393 284.92 373.313 286.56C372.233 288.2 373.383 305.23 371.443 311.87C369.503 318.51 366.573 324.32 367.153 325.32Z" fill="#37474F"/>
<path d="M388.523 281.14C384.143 285.86 382.953 296.68 381.883 300.51C380.943 303.87 373.023 320.13 369.523 327.21C368.55 326.872 367.717 326.222 367.153 325.36C366.573 324.36 369.503 318.55 371.443 311.91C373.383 305.27 372.243 288.23 373.313 286.59C374.003 285.53 382.533 282.62 388.523 281.14Z" fill="#263238"/>
<path d="M347.56 295.2C346.28 295.96 337.68 323.59 337.79 325.01C338.07 328.51 345.5 334.13 349.65 335.01C353.8 335.89 364.85 331.12 365.91 330.26C366.97 329.4 374.1 316.26 375.04 313.82C375.98 311.38 378.26 290.44 377.72 289.82C377.18 289.2 349.04 294.32 347.56 295.2Z" fill="#37474F"/>
<path d="M316.597 232.18C318.877 233.18 347.437 232.33 357.937 228.75C368.437 225.17 379.277 217.66 379.717 215.32C380.157 212.98 358.096 150.68 348.886 141.32C339.676 131.96 314.066 134.15 309.606 149.94C305.146 165.73 315.337 231.65 316.597 232.18Z" fill="#FFC727"/>
<path opacity="0.1" d="M324.432 227.41C324.146 227.85 323.732 228.192 323.247 228.392C322.762 228.591 322.227 228.639 321.714 228.528C321.201 228.417 320.734 228.153 320.375 227.77C320.015 227.388 319.781 226.905 319.701 226.387C319.622 225.868 319.703 225.337 319.932 224.865C320.161 224.393 320.528 224.002 320.985 223.743C321.441 223.484 321.966 223.37 322.488 223.416C323.011 223.462 323.508 223.666 323.912 224C324.399 224.408 324.72 224.979 324.816 225.607C324.911 226.235 324.775 226.876 324.432 227.41ZM324.432 227.41C324.622 227.094 324.719 226.731 324.711 226.363C324.704 225.995 324.592 225.636 324.389 225.329C324.186 225.021 323.9 224.778 323.564 224.626C323.228 224.475 322.856 224.421 322.491 224.473C322.127 224.524 321.784 224.677 321.502 224.915C321.221 225.153 321.013 225.466 320.902 225.817C320.791 226.168 320.782 226.544 320.876 226.9C320.97 227.256 321.163 227.579 321.432 227.83C321.648 228.02 321.903 228.16 322.178 228.243C322.454 228.325 322.744 228.347 323.028 228.307C323.313 228.267 323.586 228.167 323.828 228.012C324.07 227.857 324.276 227.652 324.432 227.41Z" fill="black"/>
<path opacity="0.1" d="M321.374 210.25C321.088 210.691 320.676 211.035 320.19 211.236C319.705 211.437 319.17 211.486 318.656 211.375C318.143 211.265 317.674 211.001 317.314 210.619C316.954 210.237 316.719 209.754 316.639 209.234C316.56 208.715 316.64 208.184 316.87 207.711C317.099 207.239 317.467 206.847 317.924 206.589C318.381 206.33 318.906 206.216 319.43 206.263C319.953 206.31 320.45 206.515 320.854 206.85C321.34 207.256 321.661 207.826 321.756 208.452C321.852 209.078 321.716 209.717 321.374 210.25ZM321.374 210.25C321.559 209.935 321.652 209.574 321.641 209.209C321.63 208.844 321.517 208.489 321.313 208.186C321.11 207.882 320.825 207.642 320.491 207.494C320.157 207.345 319.788 207.294 319.427 207.346C319.065 207.398 318.725 207.55 318.447 207.787C318.168 208.023 317.962 208.333 317.852 208.682C317.742 209.03 317.732 209.403 317.825 209.756C317.917 210.11 318.107 210.43 318.374 210.68C318.591 210.869 318.846 211.009 319.121 211.091C319.397 211.173 319.688 211.194 319.972 211.153C320.257 211.112 320.53 211.01 320.772 210.854C321.013 210.699 321.219 210.493 321.374 210.25Z" fill="black"/>
<path opacity="0.1" d="M317.717 190.8C317.432 191.241 317.019 191.585 316.534 191.786C316.049 191.987 315.514 192.035 315 191.925C314.486 191.815 314.018 191.551 313.658 191.169C313.298 190.786 313.062 190.304 312.983 189.784C312.903 189.265 312.984 188.734 313.213 188.261C313.443 187.789 313.811 187.397 314.268 187.138C314.725 186.88 315.25 186.766 315.773 186.813C316.297 186.86 316.793 187.064 317.197 187.4C317.682 187.807 318.001 188.377 318.097 189.002C318.192 189.628 318.058 190.266 317.717 190.8ZM317.717 190.8C317.925 190.478 318.036 190.103 318.036 189.72C318.037 189.337 317.928 188.962 317.722 188.639C317.515 188.317 317.221 188.06 316.873 187.9C316.525 187.74 316.138 187.683 315.759 187.736C315.38 187.789 315.024 187.95 314.733 188.199C314.443 188.449 314.23 188.777 314.12 189.144C314.01 189.511 314.008 189.901 314.114 190.269C314.22 190.637 314.43 190.967 314.717 191.22C314.934 191.41 315.188 191.55 315.464 191.633C315.739 191.715 316.029 191.737 316.314 191.697C316.598 191.657 316.871 191.557 317.113 191.402C317.356 191.247 317.562 191.042 317.717 190.8Z" fill="black"/>
<path opacity="0.1" d="M315.221 170.91C314.935 171.35 314.521 171.692 314.036 171.892C313.551 172.091 313.016 172.139 312.503 172.028C311.99 171.917 311.523 171.653 311.164 171.27C310.804 170.888 310.57 170.405 310.491 169.887C310.411 169.368 310.492 168.837 310.721 168.365C310.95 167.893 311.317 167.502 311.774 167.243C312.23 166.984 312.755 166.87 313.277 166.916C313.8 166.962 314.297 167.166 314.701 167.5C315.188 167.908 315.509 168.479 315.605 169.107C315.7 169.735 315.564 170.376 315.221 170.91ZM315.221 170.91C315.429 170.588 315.539 170.213 315.54 169.83C315.541 169.447 315.431 169.072 315.225 168.749C315.019 168.427 314.724 168.17 314.376 168.01C314.029 167.85 313.642 167.793 313.263 167.846C312.883 167.899 312.527 168.06 312.237 168.309C311.946 168.559 311.733 168.887 311.624 169.254C311.514 169.621 311.512 170.011 311.618 170.379C311.724 170.747 311.933 171.077 312.221 171.33C312.437 171.52 312.692 171.66 312.967 171.743C313.243 171.825 313.533 171.847 313.817 171.807C314.102 171.767 314.375 171.667 314.617 171.512C314.859 171.357 315.065 171.152 315.221 170.91Z" fill="black"/>
<path opacity="0.1" d="M314.682 150.37C314.396 150.81 313.982 151.152 313.497 151.352C313.012 151.551 312.477 151.599 311.964 151.488C311.451 151.377 310.984 151.113 310.625 150.73C310.265 150.348 310.031 149.865 309.951 149.347C309.872 148.828 309.953 148.297 310.182 147.825C310.411 147.353 310.778 146.962 311.235 146.703C311.691 146.444 312.216 146.33 312.738 146.376C313.261 146.422 313.758 146.626 314.162 146.96C314.649 147.368 314.97 147.939 315.066 148.567C315.161 149.194 315.025 149.836 314.682 150.37ZM314.682 150.37C314.889 150.048 315 149.673 315.001 149.29C315.002 148.907 314.892 148.532 314.686 148.209C314.48 147.887 314.185 147.63 313.837 147.47C313.49 147.31 313.103 147.253 312.724 147.306C312.344 147.359 311.988 147.52 311.698 147.769C311.407 148.019 311.194 148.347 311.085 148.714C310.975 149.081 310.973 149.471 311.079 149.839C311.185 150.207 311.394 150.537 311.682 150.79C311.898 150.98 312.153 151.12 312.428 151.203C312.704 151.285 312.994 151.307 313.278 151.267C313.563 151.227 313.836 151.126 314.078 150.972C314.32 150.817 314.526 150.612 314.682 150.37Z" fill="black"/>
<path opacity="0.1" d="M340.377 227.11C340.091 227.55 339.678 227.892 339.192 228.092C338.707 228.291 338.173 228.339 337.66 228.228C337.147 228.117 336.68 227.853 336.32 227.47C335.961 227.088 335.726 226.606 335.647 226.087C335.568 225.568 335.648 225.038 335.877 224.565C336.106 224.093 336.473 223.702 336.93 223.443C337.387 223.184 337.911 223.07 338.434 223.116C338.956 223.162 339.453 223.366 339.857 223.7C340.344 224.108 340.665 224.679 340.761 225.307C340.857 225.935 340.72 226.576 340.377 227.11ZM340.377 227.11C340.567 226.795 340.664 226.432 340.657 226.063C340.649 225.695 340.537 225.336 340.334 225.029C340.131 224.722 339.845 224.478 339.509 224.326C339.173 224.175 338.802 224.122 338.437 224.173C338.072 224.224 337.729 224.377 337.448 224.615C337.166 224.853 336.958 225.166 336.847 225.517C336.737 225.868 336.727 226.244 336.821 226.6C336.915 226.957 337.108 227.279 337.377 227.53C337.593 227.72 337.848 227.861 338.123 227.943C338.399 228.025 338.689 228.047 338.974 228.007C339.258 227.967 339.531 227.867 339.773 227.712C340.016 227.557 340.222 227.352 340.377 227.11Z" fill="black"/>
<path opacity="0.1" d="M335.202 207.65C334.916 208.091 334.504 208.435 334.018 208.636C333.533 208.837 332.998 208.885 332.484 208.775C331.971 208.665 331.503 208.401 331.142 208.019C330.782 207.637 330.547 207.154 330.467 206.634C330.388 206.115 330.468 205.584 330.698 205.111C330.927 204.639 331.295 204.247 331.752 203.989C332.209 203.73 332.735 203.616 333.258 203.663C333.781 203.71 334.278 203.914 334.682 204.25C335.166 204.657 335.486 205.227 335.581 205.852C335.677 206.478 335.542 207.117 335.202 207.65ZM335.202 207.65C335.391 207.334 335.486 206.971 335.477 206.602C335.468 206.234 335.355 205.876 335.151 205.57C334.947 205.263 334.66 205.02 334.324 204.87C333.988 204.72 333.616 204.668 333.251 204.72C332.886 204.772 332.544 204.927 332.264 205.165C331.983 205.404 331.776 205.717 331.666 206.069C331.557 206.421 331.549 206.796 331.643 207.152C331.738 207.508 331.932 207.83 332.202 208.08C332.419 208.269 332.674 208.409 332.95 208.491C333.225 208.572 333.516 208.594 333.8 208.553C334.085 208.512 334.358 208.41 334.6 208.254C334.842 208.099 335.047 207.892 335.202 207.65Z" fill="black"/>
<path opacity="0.1" d="M330.553 188.2C330.268 188.641 329.855 188.985 329.37 189.186C328.884 189.387 328.349 189.435 327.836 189.325C327.322 189.215 326.854 188.951 326.494 188.569C326.134 188.186 325.898 187.703 325.819 187.184C325.739 186.665 325.82 186.134 326.049 185.661C326.279 185.189 326.647 184.797 327.104 184.538C327.561 184.28 328.086 184.166 328.609 184.213C329.133 184.26 329.629 184.464 330.033 184.8C330.519 185.206 330.84 185.776 330.936 186.402C331.032 187.028 330.896 187.667 330.553 188.2ZM330.553 188.2C330.744 187.884 330.84 187.521 330.833 187.153C330.825 186.785 330.713 186.426 330.51 186.119C330.307 185.811 330.021 185.568 329.685 185.416C329.349 185.265 328.978 185.211 328.613 185.262C328.248 185.313 327.905 185.467 327.624 185.705C327.342 185.943 327.134 186.255 327.024 186.607C326.913 186.958 326.904 187.334 326.997 187.69C327.091 188.046 327.284 188.369 327.553 188.62C327.77 188.809 328.024 188.95 328.299 189.033C328.575 189.115 328.865 189.137 329.15 189.097C329.434 189.057 329.707 188.956 329.949 188.802C330.192 188.647 330.398 188.442 330.553 188.2Z" fill="black"/>
<path opacity="0.1" d="M326.557 168.32C326.271 168.76 325.857 169.102 325.372 169.302C324.887 169.501 324.352 169.549 323.839 169.438C323.326 169.327 322.859 169.063 322.5 168.68C322.14 168.298 321.906 167.816 321.826 167.297C321.747 166.778 321.828 166.248 322.057 165.775C322.286 165.303 322.653 164.912 323.11 164.653C323.566 164.394 324.091 164.28 324.613 164.326C325.136 164.372 325.633 164.576 326.037 164.91C326.522 165.319 326.842 165.89 326.937 166.517C327.033 167.145 326.898 167.785 326.557 168.32ZM326.557 168.32C326.764 167.998 326.875 167.623 326.876 167.24C326.877 166.857 326.767 166.482 326.561 166.16C326.355 165.837 326.06 165.58 325.712 165.42C325.365 165.26 324.978 165.203 324.599 165.256C324.219 165.309 323.863 165.47 323.573 165.72C323.282 165.969 323.069 166.297 322.96 166.664C322.85 167.031 322.848 167.421 322.954 167.79C323.06 168.158 323.269 168.488 323.557 168.74C323.773 168.93 324.028 169.07 324.303 169.153C324.579 169.235 324.869 169.257 325.153 169.217C325.438 169.177 325.711 169.077 325.953 168.922C326.195 168.767 326.401 168.562 326.557 168.32Z" fill="black"/>
<path opacity="0.1" d="M322.28 148.52C321.995 148.961 321.582 149.305 321.096 149.506C320.611 149.707 320.076 149.756 319.562 149.645C319.049 149.535 318.581 149.271 318.221 148.889C317.86 148.507 317.625 148.024 317.545 147.505C317.466 146.985 317.546 146.454 317.776 145.982C318.005 145.509 318.373 145.117 318.83 144.859C319.288 144.6 319.813 144.487 320.336 144.533C320.859 144.58 321.356 144.785 321.76 145.12C322.246 145.526 322.567 146.096 322.663 146.722C322.758 147.348 322.622 147.987 322.28 148.52ZM322.28 148.52C322.465 148.205 322.558 147.844 322.547 147.479C322.537 147.114 322.423 146.759 322.22 146.456C322.016 146.152 321.731 145.912 321.397 145.764C321.063 145.615 320.695 145.564 320.333 145.616C319.971 145.668 319.632 145.82 319.353 146.057C319.074 146.293 318.868 146.604 318.758 146.952C318.648 147.3 318.639 147.673 318.731 148.026C318.823 148.38 319.014 148.7 319.28 148.95C319.497 149.139 319.752 149.279 320.028 149.361C320.304 149.443 320.594 149.464 320.879 149.423C321.163 149.382 321.436 149.28 321.678 149.124C321.92 148.969 322.125 148.763 322.28 148.52Z" fill="black"/>
<path opacity="0.1" d="M357.87 224.81C357.583 225.25 357.17 225.592 356.685 225.792C356.199 225.991 355.665 226.039 355.152 225.928C354.639 225.817 354.172 225.553 353.812 225.17C353.453 224.788 353.218 224.305 353.139 223.787C353.06 223.268 353.14 222.737 353.369 222.265C353.599 221.793 353.966 221.402 354.422 221.143C354.879 220.884 355.403 220.77 355.926 220.816C356.449 220.862 356.945 221.066 357.35 221.4C357.836 221.808 358.157 222.379 358.253 223.007C358.349 223.634 358.212 224.275 357.87 224.81ZM357.87 224.81C358.06 224.494 358.156 224.131 358.149 223.763C358.141 223.395 358.029 223.036 357.826 222.729C357.623 222.421 357.337 222.178 357.001 222.026C356.666 221.875 356.294 221.821 355.929 221.872C355.564 221.923 355.221 222.077 354.94 222.315C354.659 222.553 354.45 222.865 354.34 223.217C354.229 223.568 354.22 223.944 354.313 224.3C354.407 224.656 354.6 224.979 354.87 225.23C355.086 225.419 355.34 225.56 355.616 225.643C355.891 225.725 356.181 225.747 356.466 225.707C356.75 225.667 357.023 225.566 357.265 225.412C357.508 225.257 357.714 225.052 357.87 224.81Z" fill="black"/>
<path opacity="0.1" d="M374.983 217.06C374.698 217.501 374.285 217.845 373.8 218.046C373.314 218.247 372.779 218.296 372.265 218.185C371.752 218.075 371.284 217.811 370.924 217.429C370.563 217.047 370.328 216.564 370.249 216.045C370.169 215.525 370.249 214.994 370.479 214.522C370.708 214.049 371.076 213.657 371.533 213.399C371.991 213.14 372.516 213.027 373.039 213.073C373.562 213.12 374.059 213.325 374.463 213.66C374.951 214.065 375.273 214.635 375.369 215.261C375.465 215.888 375.328 216.528 374.983 217.06ZM374.983 217.06C375.168 216.745 375.261 216.385 375.25 216.019C375.24 215.654 375.126 215.299 374.923 214.996C374.719 214.692 374.434 214.452 374.1 214.304C373.767 214.155 373.398 214.104 373.036 214.156C372.674 214.208 372.335 214.36 372.056 214.597C371.777 214.833 371.571 215.144 371.461 215.492C371.351 215.84 371.342 216.213 371.434 216.566C371.527 216.92 371.717 217.24 371.983 217.49C372.2 217.679 372.455 217.819 372.731 217.901C373.007 217.983 373.297 218.004 373.582 217.963C373.866 217.922 374.139 217.82 374.381 217.664C374.623 217.509 374.828 217.303 374.983 217.06Z" fill="black"/>
<g opacity="0.1">
<path d="M315.157 143.06C315.237 150.52 316.737 157.91 317.947 165.26C321.677 186.53 326.557 209.97 330.677 231.26C325.357 209.47 320.677 187.5 317.187 165.35C316.187 157.97 314.817 150.5 315.187 143.03L315.157 143.06Z" fill="black"/>
</g>
<path opacity="0.2" d="M371.726 222.11C368.938 223.837 366.038 225.377 363.046 226.72C359.976 215.09 344.046 155.11 341.406 149.72C339.236 145.35 333.406 138.89 330.406 135.77C331.336 135.7 332.266 135.67 333.196 135.69C337.766 137.69 344.586 141.36 347.746 146.74C352.276 154.39 368.486 210.76 371.726 222.11Z" fill="white"/>
<path d="M317.197 234.92C316.337 235.06 324.407 288.64 326.877 293.02C329.347 297.4 342.607 310.15 363.237 306.17C383.867 302.19 394.597 285.7 396.117 280.81C397.637 275.92 382.217 217.55 380.797 218.28C379.377 219.01 367.637 229.21 352.797 232.1C336.157 235.32 320.577 234.39 317.197 234.92Z" fill="#FFC727"/>
<path opacity="0.1" d="M327.59 242.32C327.312 242.766 326.904 243.116 326.422 243.324C325.939 243.532 325.405 243.589 324.89 243.487C324.374 243.384 323.902 243.127 323.536 242.75C323.17 242.373 322.928 241.894 322.841 241.376C322.753 240.858 322.826 240.325 323.049 239.849C323.271 239.373 323.633 238.976 324.087 238.711C324.54 238.446 325.064 238.324 325.588 238.364C326.112 238.403 326.611 238.6 327.02 238.93C327.51 239.33 327.837 239.895 327.942 240.518C328.047 241.142 327.922 241.782 327.59 242.32ZM327.59 242.32C327.791 241.995 327.895 241.618 327.889 241.236C327.882 240.854 327.766 240.481 327.555 240.162C327.343 239.844 327.044 239.592 326.694 239.438C326.344 239.284 325.957 239.234 325.579 239.293C325.201 239.352 324.848 239.519 324.562 239.772C324.276 240.026 324.068 240.357 323.964 240.725C323.86 241.093 323.864 241.483 323.975 241.849C324.086 242.215 324.299 242.542 324.59 242.79C324.81 242.977 325.067 243.115 325.345 243.194C325.622 243.272 325.913 243.29 326.198 243.245C326.483 243.2 326.755 243.095 326.996 242.935C327.236 242.775 327.439 242.566 327.59 242.32Z" fill="black"/>
<path opacity="0.1" d="M330.872 260.77C330.593 261.215 330.185 261.565 329.703 261.774C329.221 261.982 328.686 262.039 328.171 261.936C327.656 261.834 327.184 261.577 326.818 261.2C326.452 260.823 326.209 260.344 326.122 259.826C326.035 259.307 326.107 258.775 326.33 258.299C326.552 257.823 326.914 257.426 327.368 257.161C327.821 256.895 328.345 256.774 328.869 256.813C329.393 256.852 329.893 257.05 330.302 257.38C330.791 257.78 331.119 258.344 331.224 258.968C331.328 259.591 331.203 260.232 330.872 260.77ZM330.872 260.77C331.055 260.451 331.145 260.087 331.131 259.719C331.116 259.352 330.998 258.996 330.79 258.692C330.582 258.389 330.292 258.151 329.954 258.005C329.616 257.86 329.244 257.813 328.88 257.87C328.517 257.926 328.177 258.085 327.9 258.327C327.623 258.569 327.42 258.884 327.314 259.237C327.209 259.589 327.205 259.964 327.304 260.319C327.402 260.673 327.599 260.993 327.872 261.24C328.091 261.427 328.348 261.565 328.626 261.643C328.903 261.722 329.195 261.739 329.48 261.695C329.765 261.65 330.037 261.544 330.277 261.385C330.517 261.225 330.72 261.015 330.872 260.77Z" fill="black"/>
<path opacity="0.1" d="M334.149 279.19C333.869 279.634 333.461 279.983 332.979 280.19C332.496 280.397 331.962 280.452 331.448 280.349C330.933 280.246 330.462 279.989 330.097 279.612C329.732 279.235 329.49 278.756 329.403 278.238C329.316 277.72 329.389 277.188 329.611 276.713C329.833 276.237 330.195 275.841 330.647 275.575C331.1 275.31 331.623 275.188 332.146 275.227C332.67 275.265 333.169 275.461 333.579 275.79C334.069 276.192 334.397 276.758 334.502 277.383C334.606 278.008 334.481 278.65 334.149 279.19ZM334.149 279.19C334.358 278.866 334.469 278.488 334.469 278.102C334.468 277.717 334.356 277.339 334.146 277.016C333.936 276.692 333.637 276.436 333.284 276.279C332.932 276.122 332.542 276.069 332.16 276.129C331.779 276.188 331.423 276.357 331.136 276.614C330.848 276.871 330.641 277.206 330.539 277.578C330.438 277.95 330.446 278.344 330.563 278.712C330.68 279.079 330.901 279.405 331.199 279.65C331.417 279.829 331.67 279.96 331.942 280.034C332.214 280.109 332.498 280.125 332.777 280.081C333.055 280.038 333.322 279.936 333.558 279.782C333.794 279.629 333.996 279.427 334.149 279.19Z" fill="black"/>
<path opacity="0.1" d="M339.926 297.6C339.648 298.045 339.24 298.396 338.758 298.604C338.275 298.812 337.741 298.869 337.226 298.767C336.71 298.664 336.238 298.407 335.872 298.03C335.506 297.653 335.264 297.174 335.176 296.656C335.089 296.138 335.162 295.605 335.384 295.129C335.607 294.653 335.969 294.256 336.423 293.991C336.876 293.725 337.4 293.604 337.924 293.643C338.448 293.683 338.947 293.88 339.356 294.21C339.848 294.609 340.177 295.173 340.281 295.797C340.386 296.421 340.26 297.062 339.926 297.6ZM339.926 297.6C340.117 297.282 340.213 296.915 340.203 296.544C340.193 296.173 340.078 295.813 339.87 295.505C339.662 295.198 339.371 294.956 339.03 294.808C338.689 294.66 338.314 294.613 337.947 294.671C337.581 294.73 337.238 294.891 336.961 295.138C336.683 295.384 336.481 295.704 336.379 296.061C336.277 296.418 336.279 296.797 336.385 297.153C336.491 297.508 336.696 297.827 336.976 298.07C337.195 298.249 337.448 298.379 337.721 298.452C337.993 298.526 338.278 298.541 338.557 298.497C338.835 298.452 339.101 298.349 339.337 298.195C339.573 298.04 339.774 297.838 339.926 297.6Z" fill="black"/>
<path opacity="0.1" d="M353.364 297.32C353.085 297.766 352.677 298.116 352.195 298.324C351.713 298.532 351.178 298.589 350.663 298.487C350.148 298.384 349.676 298.127 349.31 297.75C348.944 297.373 348.701 296.894 348.614 296.376C348.527 295.858 348.599 295.325 348.822 294.849C349.045 294.373 349.407 293.976 349.86 293.711C350.314 293.446 350.837 293.324 351.361 293.364C351.885 293.403 352.385 293.6 352.794 293.93C353.283 294.33 353.611 294.895 353.716 295.518C353.821 296.142 353.695 296.782 353.364 297.32ZM353.364 297.32C353.572 296.995 353.681 296.617 353.679 296.232C353.678 295.846 353.564 295.469 353.353 295.146C353.142 294.824 352.842 294.569 352.489 294.413C352.136 294.257 351.746 294.206 351.365 294.267C350.984 294.327 350.629 294.497 350.342 294.755C350.055 295.013 349.849 295.348 349.749 295.72C349.648 296.093 349.657 296.486 349.775 296.854C349.893 297.221 350.115 297.546 350.414 297.79C350.632 297.969 350.886 298.099 351.158 298.173C351.431 298.246 351.716 298.261 351.994 298.217C352.273 298.172 352.539 298.07 352.775 297.915C353.011 297.76 353.212 297.558 353.364 297.32Z" fill="black"/>
<path opacity="0.1" d="M348.778 277.74C348.499 278.186 348.092 278.536 347.609 278.744C347.127 278.952 346.593 279.009 346.077 278.907C345.562 278.804 345.09 278.547 344.724 278.17C344.358 277.793 344.115 277.314 344.028 276.796C343.941 276.278 344.013 275.745 344.236 275.269C344.459 274.793 344.821 274.396 345.274 274.131C345.728 273.866 346.251 273.744 346.775 273.784C347.299 273.823 347.799 274.02 348.208 274.35C348.697 274.75 349.025 275.315 349.13 275.938C349.235 276.562 349.11 277.202 348.778 277.74ZM348.778 277.74C348.979 277.415 349.082 277.038 349.076 276.656C349.07 276.273 348.954 275.901 348.742 275.582C348.531 275.264 348.232 275.012 347.882 274.858C347.532 274.704 347.145 274.654 346.767 274.713C346.389 274.772 346.036 274.939 345.75 275.192C345.463 275.446 345.256 275.777 345.152 276.145C345.048 276.513 345.051 276.903 345.162 277.269C345.273 277.635 345.487 277.962 345.778 278.21C345.997 278.397 346.255 278.535 346.532 278.613C346.81 278.692 347.101 278.71 347.386 278.665C347.671 278.62 347.943 278.514 348.183 278.355C348.423 278.195 348.626 277.986 348.778 277.74Z" fill="black"/>
<path opacity="0.1" d="M346.281 258.74C346.002 259.184 345.594 259.533 345.111 259.74C344.629 259.947 344.095 260.002 343.581 259.899C343.066 259.796 342.595 259.539 342.23 259.161C341.864 258.784 341.622 258.305 341.536 257.788C341.449 257.27 341.521 256.738 341.744 256.263C341.966 255.787 342.327 255.391 342.78 255.125C343.233 254.86 343.756 254.738 344.279 254.776C344.803 254.815 345.302 255.011 345.711 255.34C346.202 255.742 346.53 256.308 346.634 256.933C346.739 257.558 346.614 258.2 346.281 258.74ZM346.281 258.74C346.474 258.422 346.571 258.056 346.563 257.685C346.554 257.314 346.44 256.953 346.233 256.644C346.026 256.336 345.736 256.093 345.395 255.944C345.055 255.795 344.68 255.746 344.313 255.804C343.946 255.861 343.603 256.022 343.324 256.267C343.046 256.512 342.843 256.832 342.74 257.189C342.637 257.546 342.638 257.925 342.742 258.281C342.847 258.637 343.052 258.956 343.331 259.2C343.549 259.379 343.802 259.51 344.074 259.584C344.346 259.658 344.631 259.674 344.91 259.631C345.188 259.588 345.454 259.486 345.691 259.332C345.927 259.179 346.129 258.977 346.281 258.74Z" fill="black"/>
<path opacity="0.1" d="M344.2 241.83C343.921 242.275 343.513 242.626 343.031 242.834C342.549 243.042 342.014 243.099 341.499 242.996C340.984 242.894 340.512 242.637 340.146 242.26C339.78 241.883 339.537 241.404 339.45 240.886C339.363 240.368 339.435 239.835 339.658 239.359C339.88 238.883 340.243 238.486 340.696 238.221C341.15 237.955 341.673 237.834 342.197 237.873C342.721 237.913 343.221 238.11 343.63 238.44C344.119 238.84 344.447 239.404 344.552 240.028C344.656 240.651 344.531 241.292 344.2 241.83ZM344.2 241.83C344.401 241.505 344.504 241.128 344.498 240.746C344.492 240.363 344.376 239.991 344.164 239.672C343.952 239.353 343.654 239.102 343.304 238.948C342.954 238.794 342.567 238.744 342.189 238.803C341.811 238.862 341.458 239.028 341.172 239.282C340.885 239.536 340.678 239.866 340.574 240.235C340.47 240.603 340.473 240.993 340.584 241.359C340.695 241.725 340.909 242.052 341.2 242.3C341.419 242.487 341.676 242.625 341.954 242.703C342.232 242.782 342.523 242.799 342.808 242.755C343.093 242.71 343.365 242.604 343.605 242.445C343.845 242.285 344.048 242.075 344.2 241.83Z" fill="black"/>
<path opacity="0.1" d="M361.651 239.32C361.482 239.628 361.252 239.899 360.975 240.116C360.698 240.332 360.38 240.49 360.04 240.58C359.7 240.67 359.345 240.689 358.998 240.638C358.65 240.586 358.316 240.464 358.017 240.279C357.718 240.094 357.46 239.85 357.258 239.562C357.056 239.274 356.915 238.948 356.844 238.604C356.772 238.26 356.771 237.905 356.841 237.56C356.911 237.216 357.05 236.889 357.251 236.6C357.419 236.292 357.649 236.021 357.926 235.804C358.203 235.588 358.521 235.43 358.861 235.34C359.201 235.25 359.556 235.231 359.904 235.283C360.251 235.334 360.585 235.456 360.884 235.641C361.183 235.826 361.441 236.07 361.643 236.358C361.845 236.646 361.986 236.972 362.058 237.316C362.129 237.66 362.13 238.015 362.06 238.36C361.99 238.704 361.851 239.031 361.651 239.32ZM361.651 239.32C361.803 239.103 361.91 238.857 361.964 238.597C362.018 238.336 362.019 238.068 361.966 237.808C361.912 237.548 361.807 237.301 361.655 237.083C361.503 236.865 361.308 236.681 361.082 236.541C360.856 236.401 360.604 236.309 360.341 236.27C360.079 236.231 359.811 236.246 359.554 236.314C359.297 236.383 359.057 236.503 358.849 236.667C358.64 236.831 358.467 237.037 358.341 237.27C358.101 237.666 358.006 238.132 358.072 238.589C358.138 239.047 358.36 239.468 358.701 239.78C358.918 239.959 359.172 240.09 359.444 240.164C359.716 240.239 360 240.255 360.279 240.211C360.557 240.168 360.823 240.066 361.06 239.912C361.296 239.759 361.498 239.557 361.651 239.32Z" fill="black"/>
<path opacity="0.1" d="M378.649 231.32C378.369 231.764 377.961 232.113 377.479 232.32C376.996 232.527 376.462 232.582 375.948 232.479C375.433 232.376 374.962 232.119 374.597 231.742C374.232 231.365 373.99 230.886 373.903 230.368C373.816 229.85 373.889 229.318 374.111 228.843C374.333 228.367 374.695 227.971 375.147 227.705C375.6 227.44 376.123 227.318 376.646 227.357C377.17 227.395 377.669 227.591 378.079 227.92C378.571 228.321 378.9 228.887 379.005 229.513C379.11 230.138 378.983 230.781 378.649 231.32ZM378.649 231.32C378.857 230.995 378.966 230.617 378.964 230.231C378.962 229.846 378.849 229.469 378.638 229.146C378.427 228.823 378.126 228.569 377.774 228.413C377.421 228.256 377.031 228.206 376.65 228.266C376.269 228.327 375.914 228.497 375.627 228.755C375.34 229.013 375.134 229.348 375.034 229.72C374.933 230.093 374.942 230.486 375.06 230.853C375.178 231.221 375.4 231.546 375.699 231.79C375.917 231.969 376.171 232.099 376.443 232.172C376.716 232.246 377 232.261 377.279 232.217C377.558 232.172 377.824 232.069 378.06 231.915C378.296 231.76 378.497 231.558 378.649 231.32Z" fill="black"/>
<g opacity="0.1">
<path d="M331.328 235.47C333.328 245.72 335.948 260.69 337.808 271.13C338.808 277.07 339.858 283.03 341.058 288.93C341.488 291.93 342.998 294.53 344.358 297.22C345.718 299.91 347.198 302.55 348.658 305.22C346.149 301.436 343.856 297.513 341.788 293.47C341.103 292.096 340.605 290.637 340.308 289.13C338.938 283.22 337.928 277.27 336.828 271.33C334.828 259.42 332.828 247.49 331.328 235.5V235.47Z" fill="black"/>
</g>
<path opacity="0.2" d="M386.07 294.54C382.474 297.871 378.382 300.624 373.94 302.7C378.11 292.93 377.62 281.15 376.45 275.23C375.45 270.17 366.77 239.82 363.57 228.67C366.382 227.444 369.108 226.031 371.73 224.44C374.8 234.11 383.08 260.71 385.52 273.78C387.35 283.62 386.93 290.32 386.07 294.54Z" fill="white"/>
<path opacity="0.2" d="M391.284 289.02C390.534 289.96 389.694 290.93 388.784 291.91C390.034 283.62 388.634 274.91 387.784 270.32C386.784 265.09 377.504 232.8 374.594 222.69L375.374 222.18C377.084 227.49 387.324 259.59 390.074 274.39C391.015 279.207 391.421 284.114 391.284 289.02Z" fill="white"/>
<path d="M358.579 194.74C358.579 194.74 358.659 194.74 358.699 194.74C367.069 194.42 375.829 207.34 378.289 223.74C380.479 238.22 377.069 250.55 370.499 253.66C369.583 254.096 368.591 254.348 367.579 254.4C359.179 254.85 350.349 241.85 347.849 225.4C345.349 208.95 350.159 195.19 358.579 194.74Z" fill="#263238"/>
<path d="M358.701 194.74C367.071 194.42 375.831 207.34 378.291 223.74C380.481 238.22 377.071 250.55 370.501 253.66C362.131 253.98 353.361 241.03 350.881 224.66C348.701 210.18 352.131 197.84 358.701 194.74Z" fill="#455A64"/>
<path opacity="0.5" d="M82.5672 150.8C77.6872 157.55 67.8572 162.48 67.8572 162.48C67.8572 162.48 60.2772 158.16 50.9772 152.22C37.8172 143.85 20.9172 134.37 17.4272 122.82C16.1372 118.55 62.2172 120.96 60.0272 102.88C59.0272 94.3098 -6.97278 61.3098 1.91722 28.9298C3.20722 24.2198 63.9172 36.9298 63.0472 34.6298C62.1772 32.3298 35.9072 12.2398 42.8372 1.57979C45.3972 -2.34021 78.6972 2.57979 81.8972 3.01979C79.3272 2.74979 57.2772 0.539793 53.2772 6.72979C46.8572 16.7298 98.5772 48.3198 98.3472 52.3898C98.1972 54.7698 47.6672 42.0098 50.2572 61.6898C53.1472 83.8198 112.257 86.6898 112.347 89.9498C112.487 96.5198 96.8672 122.72 57.5472 126.54C45.7672 127.68 46.7372 139.45 82.5672 150.8Z" fill="#FFC727"/>
<path opacity="0.7" d="M80.5509 153.23C77.7121 156.211 74.4506 158.758 70.8709 160.79C70.8709 160.79 26.8709 137.96 24.1709 124.79C23.4309 121.15 72.7109 121.6 67.6809 101.53C65.2809 92.0598 3.28087 62.1898 10.5909 35.3198C11.6609 31.4098 70.4709 40.2098 69.7509 38.3198C69.0309 36.4298 40.2809 12.6598 46.0309 3.81983C48.1509 0.559832 61.0309 1.70983 63.6409 2.10983C61.5009 1.87983 49.9709 3.02983 49.1809 6.76983C47.1809 16.4098 90.0309 45.7698 89.8309 49.1698C89.7109 51.1698 40.1109 39.5398 44.3009 62.9698C47.5609 81.2198 103.871 90.3998 103.931 93.1398C104.041 98.5898 88.5309 119 55.8709 122.14C46.0909 123.11 27.6209 135.88 80.5509 153.23Z" fill="#FFC727"/>
<g opacity="0.5">
<path d="M37.6534 82.6999C37.6534 82.6999 25.1034 83.2099 19.3034 77.6199C12.0534 70.6199 25.5634 60.3099 37.9234 56.5199C47.3601 53.7485 56.9807 51.6466 66.7134 50.2299C66.7134 50.2299 60.7134 44.4199 46.1234 44.4199C35.9734 44.4199 35.6234 51.7499 35.6234 51.7499C35.6234 51.7499 24.6734 52.1199 16.4034 60.1599C10.0834 66.3199 4.96339 83.7299 37.6534 82.6999Z" fill="#FFC727"/>
<path d="M75.9991 81.1003C101.759 77.3903 105.729 83.2003 104.609 88.6003C101.329 104.37 69.1191 103.22 60.2191 104.37C23.4091 109.11 44.8591 116.96 44.8591 116.96C44.8591 116.96 31.0391 117.23 31.0391 110.86C31.0391 104.09 42.5991 102.3 62.6491 102.3C80.9791 102.3 98.3591 95.3002 99.1991 86.4402C99.7891 80.3203 75.9991 81.1003 75.9991 81.1003Z" fill="#FFC727"/>
<path d="M7.81724 67.1401C7.81724 67.1401 1.71724 79.7301 18.9972 82.7401C18.9972 82.7401 5.87724 83.3901 3.86724 77.7401C1.85724 72.0901 7.81724 67.1401 7.81724 67.1401Z" fill="#FFC727"/>
<path d="M26.1562 29.9101C35.0662 19.3701 48.8463 25.9701 57.5363 32.3101C66.2263 38.6501 76.7463 41.6401 87.1263 35.1001C94.1862 30.6601 94.1963 24.6201 89.5463 23.4801C84.8963 22.3401 82.2763 28.5401 77.9463 31.6001C74.0662 34.3501 68.7863 36.4901 60.8063 32.0901C54.8063 28.7901 51.0763 21.4501 41.2763 20.8501C31.4763 20.2501 26.1562 29.9101 26.1562 29.9101Z" fill="#FFC727"/>
<path d="M84.3672 22.7101C86.1475 21.4652 88.3225 20.9161 90.4804 21.1667C92.6384 21.4173 94.6296 22.4503 96.0772 24.0701C96.0772 24.0701 92.0172 14.2201 84.3672 22.7101Z" fill="#FFC727"/>
<path d="M101.328 79.4901C101.328 79.4901 107.178 82.1701 105.728 88.0201C105.728 88.0201 110.098 79.1401 101.328 79.4901Z" fill="#FFC727"/>
<path d="M32.7006 48.25C32.7026 48.5535 32.6143 48.8506 32.4469 49.1038C32.2796 49.3569 32.0407 49.5546 31.7607 49.6716C31.4808 49.7886 31.1723 49.8198 30.8746 49.7611C30.5769 49.7023 30.3033 49.5564 30.0888 49.3419C29.8742 49.1273 29.7283 48.8537 29.6695 48.556C29.6108 48.2583 29.642 47.9498 29.759 47.6699C29.876 47.3899 30.0737 47.151 30.3268 46.9837C30.58 46.8163 30.8771 46.728 31.1806 46.73C31.5829 46.7326 31.968 46.8936 32.2525 47.1781C32.537 47.4626 32.698 47.8477 32.7006 48.25Z" fill="#FFC727"/>
<path d="M47.9437 110.06C47.9437 110.367 47.8528 110.666 47.6825 110.921C47.5122 111.176 47.2701 111.375 46.9869 111.492C46.7037 111.61 46.392 111.64 46.0914 111.58C45.7907 111.521 45.5145 111.373 45.2977 111.156C45.081 110.939 44.9333 110.663 44.8735 110.363C44.8137 110.062 44.8444 109.75 44.9617 109.467C45.0791 109.184 45.2777 108.942 45.5326 108.771C45.7875 108.601 46.0872 108.51 46.3938 108.51C46.8048 108.51 47.1991 108.674 47.4898 108.964C47.7804 109.255 47.9437 109.649 47.9437 110.06Z" fill="#FFC727"/>
<path d="M78.4897 24.0803C78.4897 24.3834 78.3997 24.6796 78.2311 24.9314C78.0626 25.1832 77.823 25.3793 77.5429 25.4948C77.2627 25.6103 76.9546 25.64 76.6575 25.5801C76.3604 25.5203 76.0878 25.3736 75.8743 25.1586C75.6607 24.9436 75.5158 24.6701 75.4579 24.3726C75.4 24.0752 75.4317 23.7672 75.549 23.4879C75.6664 23.2085 75.864 22.9702 76.117 22.8033C76.3699 22.6364 76.6667 22.5483 76.9697 22.5503C77.1701 22.5503 77.3686 22.59 77.5537 22.667C77.7388 22.744 77.9068 22.8568 78.048 22.999C78.1893 23.1413 78.3011 23.31 78.3769 23.4956C78.4527 23.6811 78.491 23.8799 78.4897 24.0803Z" fill="#FFC727"/>
<path d="M24.0981 73.53C24.0981 73.6803 24.0536 73.8273 23.97 73.9523C23.8865 74.0772 23.7678 74.1746 23.629 74.2322C23.4901 74.2897 23.3373 74.3047 23.1899 74.2754C23.0424 74.2461 22.907 74.1737 22.8007 74.0674C22.6944 73.9611 22.6221 73.8257 22.5927 73.6783C22.5634 73.5309 22.5785 73.3781 22.636 73.2392C22.6935 73.1003 22.7909 72.9816 22.9159 72.8981C23.0409 72.8146 23.1878 72.77 23.3381 72.77C23.5397 72.77 23.733 72.8501 23.8755 72.9926C24.0181 73.1352 24.0981 73.3285 24.0981 73.53Z" fill="#FFC727"/>
<path d="M92.28 38.7702C92.2774 38.9727 92.1951 39.166 92.051 39.3083C91.9068 39.4505 91.7125 39.5303 91.51 39.5303C91.3084 39.5303 91.1151 39.4502 90.9726 39.3077C90.8301 39.1651 90.75 38.9718 90.75 38.7702C90.75 38.5687 90.8301 38.3754 90.9726 38.2328C91.1151 38.0903 91.3084 38.0103 91.51 38.0103C91.7125 38.0102 91.9068 38.09 92.051 38.2322C92.1951 38.3745 92.2774 38.5678 92.28 38.7702Z" fill="#FFC727"/>
<path d="M33.5178 28.04C33.9376 28.04 34.2778 27.6998 34.2778 27.28C34.2778 26.8603 33.9376 26.52 33.5178 26.52C33.0981 26.52 32.7578 26.8603 32.7578 27.28C32.7578 27.6998 33.0981 28.04 33.5178 28.04Z" fill="#FFC727"/>
<path d="M96.2197 84.77C96.2197 84.8711 96.1998 84.9712 96.1611 85.0647C96.1224 85.1581 96.0657 85.243 95.9942 85.3145C95.9227 85.386 95.8378 85.4427 95.7444 85.4814C95.6509 85.5201 95.5508 85.54 95.4497 85.54C95.3486 85.54 95.2485 85.5201 95.155 85.4814C95.0616 85.4427 94.9767 85.386 94.9052 85.3145C94.8337 85.243 94.777 85.1581 94.7383 85.0647C94.6996 84.9712 94.6797 84.8711 94.6797 84.77C94.6797 84.6689 94.6996 84.5688 94.7383 84.4753C94.777 84.3819 94.8337 84.297 94.9052 84.2255C94.9767 84.154 95.0616 84.0973 95.155 84.0586C95.2485 84.0199 95.3486 84 95.4497 84C95.5508 84 95.6509 84.0199 95.7444 84.0586C95.8378 84.0973 95.9227 84.154 95.9942 84.2255C96.0657 84.297 96.1224 84.3819 96.1611 84.4753C96.1998 84.5688 96.2197 84.6689 96.2197 84.77Z" fill="#FFC727"/>
<path d="M28.3859 108.51C28.3873 108.612 28.3683 108.713 28.3302 108.808C28.2921 108.903 28.2356 108.989 28.164 109.061C28.0923 109.134 28.007 109.191 27.9129 109.231C27.8189 109.27 27.7179 109.29 27.6159 109.29C27.4091 109.29 27.2107 109.208 27.0644 109.062C26.9181 108.916 26.8359 108.717 26.8359 108.51C26.8359 108.408 26.8562 108.307 26.8955 108.213C26.9348 108.119 26.9924 108.034 27.065 107.962C27.1376 107.891 27.2236 107.834 27.3182 107.796C27.4128 107.758 27.514 107.739 27.6159 107.74C27.7174 107.739 27.8182 107.758 27.9122 107.796C28.0062 107.834 28.0916 107.891 28.1634 107.963C28.2352 108.035 28.2918 108.12 28.3301 108.214C28.3683 108.308 28.3873 108.409 28.3859 108.51Z" fill="#FFC727"/>
</g>
<path d="M45.1016 12.46L47.9316 11.93L48.5616 8.95996L49.1916 11.93L52.0216 12.46L49.2116 13.15L48.5616 15.96L47.9216 13.15L45.1016 12.46Z" fill="white"/>
<path d="M70.5781 85.54L73.4081 85.02L74.0381 82.04L74.6681 85.02L77.4981 85.54L74.6881 86.23L74.0381 89.04L73.3981 86.23L70.5781 85.54Z" fill="white"/>
<path d="M70.5781 146.73L73.4081 146.21L74.0381 143.23L74.6681 146.21L77.4981 146.73L74.6881 147.42L74.0381 150.23L73.3981 147.42L70.5781 146.73Z" fill="white"/>
<path d="M0 34.73L2.83 34.21L3.46 31.23L4.09 34.21L6.92 34.73L4.1 35.42L3.46 38.23L2.81 35.42L0 34.73Z" fill="white"/>
<path d="M27.7188 122.96L30.5487 122.44L31.1788 119.46L31.8088 122.44L34.6388 122.96L31.8188 123.65L31.1788 126.46L30.5288 123.65L27.7188 122.96Z" fill="white"/>
<path d="M80.4609 29.7598L82.0409 29.4698L82.3909 27.7998L82.7409 29.4698L84.3209 29.7598L82.7509 30.1498L82.3909 31.7198L82.0309 30.1498L80.4609 29.7598Z" fill="white"/>
<path d="M8.49219 44.8999L10.0722 44.6099L10.4322 42.9399L10.7822 44.6099L12.3622 44.8999L10.7922 45.2899L10.4322 46.8599L10.0722 45.2899L8.49219 44.8999Z" fill="white"/>
<path d="M62.2578 1.96L63.8378 1.67L64.1878 0L64.5378 1.67L66.1178 1.96L64.5478 2.34L64.1878 3.92L63.8278 2.34L62.2578 1.96Z" fill="white"/>
<path d="M68.6484 48.25L70.2284 47.96L70.5784 46.29L70.9384 47.96L72.5184 48.25L70.9384 48.64L70.5784 50.21L70.2184 48.64L68.6484 48.25Z" fill="white"/>
<path d="M90.2969 98.44L91.8769 98.14L92.2369 96.48L92.5869 98.14L94.1669 98.44L92.5969 98.82L92.2369 100.39L91.8769 98.82L90.2969 98.44Z" fill="white"/>
<path d="M60.3203 142.47L61.9003 142.18L62.2603 140.51L62.6103 142.18L64.1903 142.47L62.6203 142.85L62.2603 144.43L61.9003 142.85L60.3203 142.47Z" fill="white"/>
<path d="M28.0303 32.8302C28.1523 32.8302 28.2693 32.7817 28.3556 32.6954C28.4418 32.6092 28.4903 32.4922 28.4903 32.3702C28.4903 32.2482 28.4418 32.1312 28.3556 32.0449C28.2693 31.9586 28.1523 31.9102 28.0303 31.9102C27.9083 31.9102 27.7913 31.9586 27.705 32.0449C27.6188 32.1312 27.5703 32.2482 27.5703 32.3702C27.5703 32.4922 27.6188 32.6092 27.705 32.6954C27.7913 32.7817 27.9083 32.8302 28.0303 32.8302Z" fill="white"/>
<path d="M64.7022 135.05C64.8242 135.05 64.9412 135.001 65.0275 134.915C65.1137 134.829 65.1622 134.712 65.1622 134.59C65.1622 134.468 65.1137 134.351 65.0275 134.265C64.9412 134.178 64.8242 134.13 64.7022 134.13C64.5802 134.13 64.4632 134.178 64.3769 134.265C64.2907 134.351 64.2422 134.468 64.2422 134.59C64.2422 134.712 64.2907 134.829 64.3769 134.915C64.4632 135.001 64.5802 135.05 64.7022 135.05Z" fill="white"/>
<path d="M19.197 37.14C19.3061 37.1238 19.4058 37.0689 19.4778 36.9854C19.5498 36.9019 19.5894 36.7953 19.5894 36.685C19.5894 36.5747 19.5498 36.4681 19.4778 36.3846C19.4058 36.3011 19.3061 36.2462 19.197 36.23C19.088 36.2462 18.9883 36.3011 18.9163 36.3846C18.8443 36.4681 18.8047 36.5747 18.8047 36.685C18.8047 36.7953 18.8443 36.9019 18.9163 36.9854C18.9883 37.0689 19.088 37.1238 19.197 37.14Z" fill="white"/>
<path d="M74.1631 98.9C74.2851 98.9 74.4021 98.8515 74.4884 98.7652C74.5747 98.679 74.6231 98.562 74.6231 98.44C74.6231 98.318 74.5747 98.201 74.4884 98.1147C74.4021 98.0284 74.2851 97.98 74.1631 97.98C74.0411 97.98 73.9241 98.0284 73.8379 98.1147C73.7516 98.201 73.7031 98.318 73.7031 98.44C73.7031 98.562 73.7516 98.679 73.8379 98.7652C73.9241 98.8515 74.0411 98.9 74.1631 98.9Z" fill="white"/>
<path d="M49.0462 70.4801C49.1226 70.4666 49.1919 70.4267 49.2418 70.3672C49.2916 70.3078 49.319 70.2327 49.319 70.1551C49.319 70.0775 49.2916 70.0024 49.2418 69.9429C49.1919 69.8835 49.1226 69.8435 49.0462 69.8301C48.9698 69.8435 48.9005 69.8835 48.8507 69.9429C48.8008 70.0024 48.7734 70.0775 48.7734 70.1551C48.7734 70.2327 48.8008 70.3078 48.8507 70.3672C48.9005 70.4267 48.9698 70.4666 49.0462 70.4801Z" fill="white"/>
<path d="M90.2181 28.69C90.2945 28.6766 90.3637 28.6366 90.4136 28.5772C90.4635 28.5177 90.4909 28.4426 90.4909 28.365C90.4909 28.2874 90.4635 28.2123 90.4136 28.1529C90.3637 28.0934 90.2945 28.0535 90.2181 28.04C90.1417 28.0535 90.0724 28.0934 90.0226 28.1529C89.9727 28.2123 89.9453 28.2874 89.9453 28.365C89.9453 28.4426 89.9727 28.5177 90.0226 28.5772C90.0724 28.6366 90.1417 28.6766 90.2181 28.69Z" fill="white"/>
<path d="M33.5228 131.84C33.5992 131.826 33.6684 131.787 33.7183 131.727C33.7682 131.668 33.7955 131.593 33.7955 131.515C33.7955 131.437 33.7682 131.362 33.7183 131.303C33.6684 131.243 33.5992 131.203 33.5228 131.19C33.4464 131.203 33.3771 131.243 33.3272 131.303C33.2773 131.362 33.25 131.437 33.25 131.515C33.25 131.593 33.2773 131.668 33.3272 131.727C33.3771 131.787 33.4464 131.826 33.5228 131.84Z" fill="white"/>
<path d="M68.9603 32.3702C69.0367 32.3568 69.1059 32.3168 69.1558 32.2574C69.2057 32.1979 69.233 32.1228 69.233 32.0452C69.233 31.9676 69.2057 31.8925 69.1558 31.8331C69.1059 31.7736 69.0367 31.7337 68.9603 31.7202C68.8839 31.7337 68.8146 31.7736 68.7647 31.8331C68.7148 31.8925 68.6875 31.9676 68.6875 32.0452C68.6875 32.1228 68.7148 32.1979 68.7647 32.2574C68.8146 32.3168 68.8839 32.3568 68.9603 32.3702Z" fill="white"/>
<path d="M56.3275 155.37C56.4039 155.357 56.4731 155.317 56.523 155.257C56.5729 155.198 56.6002 155.123 56.6002 155.045C56.6002 154.968 56.5729 154.893 56.523 154.833C56.4731 154.774 56.4039 154.734 56.3275 154.72C56.251 154.734 56.1818 154.774 56.1319 154.833C56.082 154.893 56.0547 154.968 56.0547 155.045C56.0547 155.123 56.082 155.198 56.1319 155.257C56.1818 155.317 56.251 155.357 56.3275 155.37Z" fill="white"/>
<path d="M14.8097 35.6101C15.0431 35.6101 15.2669 35.5174 15.4319 35.3524C15.597 35.1873 15.6897 34.9635 15.6897 34.7301C15.6897 34.4967 15.597 34.2729 15.4319 34.1078C15.2669 33.9428 15.0431 33.8501 14.8097 33.8501C14.5763 33.8501 14.3525 33.9428 14.1874 34.1078C14.0224 34.2729 13.9297 34.4967 13.9297 34.7301C13.9297 34.9635 14.0224 35.1873 14.1874 35.3524C14.3525 35.5174 14.5763 35.6101 14.8097 35.6101Z" fill="white"/>
<path d="M77.8176 44.8999C78.0335 44.8768 78.2333 44.7746 78.3784 44.6131C78.5236 44.4516 78.6039 44.2421 78.6039 44.0249C78.6039 43.8077 78.5236 43.5982 78.3784 43.4367C78.2333 43.2752 78.0335 43.173 77.8176 43.1499C77.6016 43.173 77.4019 43.2752 77.2567 43.4367C77.1116 43.5982 77.0312 43.8077 77.0312 44.0249C77.0312 44.2421 77.1116 44.4516 77.2567 44.6131C77.4019 44.7746 77.6016 44.8768 77.8176 44.8999Z" fill="white"/>
</svg>
